<svg width="86" height="60" fill="none" xmlns="http://www.w3.org/2000/svg"><path d="M73.6 56.8c1.5-1 11.6-8.6 10.3-17.2-.5-3.4-3.4-6.3-9.3-12 0 0-6.9-6.6-16.8-12.2C53.7 13 55 14 35 5.4 29.2 3 25.4 1.2 20 1 17.2.9 12.4.7 9.1 3.9c-.9.9-1.4 1.7-3.4 6.4a320 320 0 0 0-3.7 9 57 57 0 0 0 10 15c7.4 8 17 11.9 36.2 19.4a44 44 0 0 0 25.4 3.1Z" fill="#FFAD4D"/><path d="m54.9 37.4 8.2 2.9c2.7.8 5.5 1.5 8.3.5.9-.3 1.5-.7 1.8-1.2.1-.2.5-.8.4-2.1-.2-2.7-2.2-3.5-1.8-5.2.1-.7.6-1.4 1.2-1.5.8 0 1.5 1.1 2 2 1 1.6 1.8 3.3 1.4 5.2a5.7 5.7 0 0 1-6 4.7c-1.8 0-3.6-.4-5.4-1-3-.9-6-2.1-9-3.3l-1.3-.8.2-.2ZM30 25.1c-2.2-1.8-4.5-3.5-6.7-5.5-2.1-1.9-4.2-3.9-4.8-6.8-.4-1.8 0-2.8 1.7-3.6A10 10 0 0 1 25.6 8c.4 0 1-.3 1-.4 0-.5 0-1.3-.4-1.5-.9-.4-1.9-.7-2.8-.6-1.8 0-3.7.2-5.1 1.4a5.7 5.7 0 0 0-1 7.6c1 1.5 2.3 3 3.7 4.1 2.4 2.1 5 4 7.5 6l1.4.7.1-.3Z" fill="#2F354D"/><path d="m85.3 43.2-8 12.7C75.9 58 73.5 58.7 71 59c-4 .7-8 .5-11.9-.4A102.9 102.9 0 0 1 9.8 33.4c-3-2.8-5.7-6-7.6-9.7-1-2-1.7-4-1.4-6.2.3-1.6 1-2.9 2.3-4L4.3 12l4.1-7.2c.5-1 1.2-1.5 2.2-2 3-1.5 6.3-1.8 9.6-1.7 7.4.3 14.5 2.2 21.3 4.9a106.9 106.9 0 0 1 32.3 18.9c3.6 3.2 7 6.6 9.3 10.9 1 1.7 1.5 3.7 2.2 5.6v1.8ZM72.7 47c2.7 0 5.2-.2 7.5-1.2 2-1 3-2.6 2.4-4.8a16 16 0 0 0-1.6-4c-2.1-3.9-5.2-7-8.5-10-10-8.7-21.3-14.9-33.6-19.4a62.7 62.7 0 0 0-18.1-4c-2.9-.2-5.7 0-8.4 1.2-2 .9-2.8 2.4-2.4 4.5.2 1.1.5 2.2 1 3.1a39 39 0 0 0 10.3 12.1c9.6 8 20.3 14 32 18.2 6.3 2.3 12.8 4 19.4 4.3Zm-7 1.8-6.2-1.5A110.2 110.2 0 0 1 31 34.5c-1.1-.7-1.3-.6-1.9.5l-2.8 5.5-.8 1.1-.4-.2c.1-.3.1-.7.3-1l2.4-6.3c.2-.6 0-1.4-.3-1.8-.5-.6-1.3-1-2-1.5L21 39.5l.7.5c9 6 18.6 10.9 29 14.1 4.6 1.5 9.4 2.6 14.3 2.8.5 0 1.2-.2 1.4-.5l3.8-5.5c.3-.4.5-1 .7-1.5l-2.7-.3c-.9-.2-1.4 0-1.9.8-.5.9-1.2 1.6-1.8 2.4l-.3-.1 1.4-3.4ZM11.4 18l-5.1 7.6c2 3.5 10.9 11.8 14.3 13.4l3-8.3c.2-.7 0-1.2-.6-1.7a196 196 0 0 1-7.4-6.5c-1.5-1.4-2.8-3-4.2-4.5Zm-5.9 6.5 3.9-7.7c.2-.4.5-1 .3-1.3-.6-1.6-1.4-3-2.2-4.7l-4 7.3c-.2.2-.3.6-.2.9.2 2 1 3.7 2.2 5.5Zm62.4 32.3A11 11 0 0 0 79.3 49l-5.4.6c-.3 0-.5.1-.7.3l-5.3 7Z" fill="#2F354D"/><path d="m38.4 21.6 2.2 1.9c.3.2.3.3.2.4 0 0 0 .2-.2.2l-.5.8-.1.3c0 .5.9 1.3 1.9 1.8.8.4 1.7.5 1.9.3l.2-.4.3-.3.3.2 3.5 3 5.3 4.4.9.7c1 .6 2 1 2.4.8l.2-.2c.2-.3-.1-.8-.8-1.4l-3-2.4-5.3-4.4-.2-.2-.8-.4-8-4.9a2 2 0 0 0-.4-.2Z" fill="#2F354D"/><path d="M29.7 13.3v.2c0 .5.3 1 1.1 1.8l5.7 4.8 1.9 1.5.4.2 8 4.9.8.4-.1-.2-2-1.6-.1-.2.2-.3.6-.8c.2-.3-.2-1-1-1.5-.8-.6-1.7-1-2.3-1-.4 0-.5.1-.6.3l-.1.1-.3.4-.1-.1-6.9-5.7-1.1-1-4-2.4v.2ZM37.1 15.1l.2.2h.1l8.7 5.3h.1l.2.2h.1c3.3 1.5 6.6 2.8 10 4.2l3 1.3-.2-.1V26l-9-5.4h-.1l-.3-.3h-.2l-3.5-1.5-5.7-2.4-3.4-1.4Z" fill="#2F354D"/><path d="M29.9 13v.2l3.9 2.3.2.1 9.6 4a393.1 393.1 0 0 0 2.6 1h-.1l-8.7-5.3h-.1l-.2-.2a1264.6 1264.6 0 0 0-6.2-2.4c-.5 0-.8.1-1 .3ZM50 20.4c0 .1 0 .2.2.2v.1l9 5.4h.2l.1.2a259.7 259.7 0 0 1 2.8 1c.3 0 .6 0 .7-.2l-.1-.6a5.1 5.1 0 0 0-2.2-1.6l-4.4-1.8-3.4-1.4-3-1.3Z" fill="#2F354D"/></svg>
