<svg width="600" height="383" fill="none" xmlns="http://www.w3.org/2000/svg"><path d="M598.5 273c.4-.8-1.3-4.5-1.5-5-8.5-17.4-20.5-30-36.4-41-8.7-6-18-10.9-27.5-15.5-17.5-8.4-21.4-10.8-26.1-13.5-1.2-.7-4-1.3-6.5-3a140.3 140.3 0 0 1-29.5-28.6c-1.6-2-5.4-7-11.7-12.4a87 87 0 0 0-3.3-2.8l-.1.3-.1.3c-.2.4-.8.5-1.2.3-.4-.2-.4-.7-.3-1.1v-.1l.1-.2.1-.3.1-.4v-.3l.1-1-.7-.6c-.8 7.3-3.9 13.2-8.5 18.5-3.6 4.2-8 7.3-13 9.6a11.3 11.3 0 0 0-5.7 5.3c-.7 1.4-1.9 2.6-3 3.6-2.4 2.1-5 3.7-8 4.6-12.5 3.8-25.1 6.5-38.2 6a25.2 25.2 0 0 1-23.4-15.4c-1.4-3-1.2-6.6-2.2-9.8-.3-.9-1.4-1.4-1.6-2.4l-.7.4c-4 4.8-8.7 8.6-15 10.1-.1 0-.8.4-1.5 1a8 8 0 0 0-1.8 1.6c-2.4 3.1-11 7-11 7-6.7 3.2-11 19.6-16 42.7-2.4 11-3.5 22-4.7 33-1.2 12-2.2 24-3.7 36-1 7.8-1.7 15.7-4.5 23.3-2 5.4-3.6 10.9-5.5 16.3a50.4 50.4 0 0 1-10.2 16.5l-4 4.4 1.4-.8c.4-.2.9 0 1.1.3.3.4 0 1-.3 1.1l-.3.2c1.8.7 3.4 1.4 5 1.9 7.5 2 15 3.2 22.7 3.7 10.4.6 20.7.3 31-1 2.3-.2 4.5-.6 6.8-1l-.3-.7a21 21 0 0 1-2-20.8c.8-2 1.5-4 2.1-6.2 1.6-6 2.4-12.3 3-18.6.4-4.4-.7-8.5-3.4-12.1l-2.6-3.8c-4.5-6-8.2-12.4-11.7-19.1-1.5-3-2.5-6-3-9.2-1.2-6.6 2.5-12.1 9-13.2a34.2 34.2 0 0 1 25.4 6.3c2.3 1.5 4.7 3 7.2 4.2 3.6 1.7 7.4 2.3 11.3 1.3a66 66 0 0 0 13.4-5.5c.3-.2.7-.5.8-.8.5-2.3 2.4-3.4 4.2-4.5a27.3 27.3 0 0 1 18-3.1c8.4.9 16 4 23 8.6 6 4.1 12 8.3 18.2 12.4 4.5 3 8.9 6 13.5 8.9a39 39 0 0 0 23.5 6.3c4-.3 8.1-1 12.1-1.7 10.2-2 20-5.4 29.9-8.6 14.9-4.9 29.8-9.8 45.3-12.3a47.9 47.9 0 0 1 14.9-.7c3 .4 6.9 2.3 7.5 1.1ZM263.3 276.2V258l-.1-19.7c-.2-8-.6-15.8-.7-23.6-.2-8.4 0-16.8.7-25.2 0-.4 0-.9-.2-1.5-6.9.8-13.4-.7-20-2 0 .1-.2.5-.6.8-3.2 3-13.6-1-14-5.6-.1-.8.1-1.5.4-2a62 62 0 0 1-15.2-17v.2c.1.3 0 .6-.2.8-.2.2-.5.2-.8.2-.5 0-.9-.3-1.2-.6-35.8 27-74.9 47-119 57.1l.9.5 1.5.2c8.5 1 16.8 2.8 24.8 5.7 10 3.7 19 9.4 27.5 15.7 12 8.7 22.2 19.2 31.4 30.7l32.7 40.8a165.9 165.9 0 0 0 21 23.5c.8.9 2.3 2.9 4.8 5a49.5 49.5 0 0 0 15.5 10c1-3.2 3.5-9.3 5-15 3.8-14.5 4.1-21.9 4.8-27.7 1.2-11 1-22 1-33.1Z" fill="#E7E4FF"/><path d="M595.4 274c-9.5 2.9-17.6 8-25 14-6.9 5.6-13.4 11.5-20.4 17a197 197 0 0 1-72.7 35.5c-9.6 2.4-19.4 4.2-29 6.3h-1.4l.6-.7a186 186 0 0 0 32.9-34.8c3-4 6-8.2 8.7-12.4 1-1.6 2.2-2.4 4.1-2.6 8.4-1.1 16.6-3.4 24.7-5.9l36-11.3c8.5-2.6 17.1-4.4 26-5.6a49 49 0 0 1 15.5.4ZM226.1 342.9c9.8 3.4 17.9 6 23.4 7.5a190 190 0 0 1-31-27.4c-5.6-6-10.5-10.4-14.5-15.9-2.8 1-5.3 2.2-8 3-9.5 2.7-19.3 4.8-29.2 6l-4.9.8 35.2 14.5c13.8 5.7 20 8.3 29 11.5ZM131 234.4l-10.2 1.2c-8 .8-16 .5-24 0A38.4 38.4 0 0 1 72.5 225l-1.2-.7.3-.6 5-.8c2-.3 3.8-.5 5.6-1 3.7-.9 7.4-.4 11 0a110 110 0 0 1 27 6.5c3.3 1.3 6.4 3 9.6 4.5l1.3.8-.2.6ZM397 261.6l-.4.6-6.5 4c.3-2 3.8-4.2 6.8-4.6Z" fill="#D4C5FF"/><path d="M350.7 301.2a11 11 0 0 0 3.6 16.4c2.7 1.5 5.8 2 9 2.1h2c.8 0 1.3.4 1.5 1.1 1 3 1.1 6.1 1 9.2 0 .5-.9 1.1-1.5 1.5-4.4 3.2-8 7.2-10.2 12.2a15.3 15.3 0 0 0-1.4 10.2l1.4 3.9c-2 1.4-4.3 2.9-6.3 4.5a14.6 14.6 0 0 0-4.6 6.3 19.3 19.3 0 0 1-9-18.5c.3-2 .8-4.2 1.6-6.1a76.6 76.6 0 0 0 4.6-19.2l.7-5.8c.4-4.4-.3-8.5-2.8-12.2-2.3-3.3-4.8-6.5-6.8-9.9-3.2-5-6-10.3-9-15.5a21.2 21.2 0 0 1-2.4-8.7c-.3-5.1 2.4-9.6 8-10.7 4.5-.9 9-.4 13.3.7 4 1 7.5 2.9 11 5l6.3 4a19 19 0 0 0 17.5.9 120 120 0 0 0 16-8c1.9-1 3.4-2.5 5.2-3.6.8-.5 1.8-.7 2.8-.8a47.7 47.7 0 0 1 29.3 8c8.3 5.7 16.7 11.4 25.2 17 3.5 2.4 7 4.7 10.8 6.7 6.4 3.5 13.3 5 20.5 4.9h1.4l-1 1.7c-9.5 13.9-20 27-32.2 38.6a115.5 115.5 0 0 1-43.5 27.2c-6.8 2.3-13.8 3.7-20.8 4.9l-1.6.1c.6-4.4 1-8.6-2.5-12.2l2.2-2a24 24 0 0 0 6-7.3c4.5-9.3-.5-20-12-20.7-2-.2-4.2.1-6.3.7.7 0 1.4 0 2.2-.2 3.5-.5 6.8.3 9.8 2 7 3.7 9.1 12.2 4.7 19.1-4 6.3-9.7 10.6-17.1 12.3a33 33 0 0 1-11.7.6c-8.7-1.1-11.6-7.3-9.7-14.5a26 26 0 0 1 9.6-14l2.7-1.9V320c2.6-.8 5.4-1.5 8-2.6 5.1-2 9-5.7 11.8-10.5 1.7-2.9 2.5-6 2.6-9.3.2-5-2.1-9-6.8-11a19 19 0 0 0-15.8 0 45.4 45.4 0 0 0-15 11c-.7.9-1 2-1.7 3l-.6.7Zm51 23.7h.3l.1-1-.6-10.5a89.9 89.9 0 0 0-4-20.2 29.2 29.2 0 0 0-4.9-9.7c-.6-.8-1.4-1.5-2.3-2.1-.3-.3-.9 0-1.4 0 .2.4.2 1 .6 1.3 2.2 1.8 3.7 4.1 4.8 6.7 1.3 3.4 2.6 6.8 3.6 10.3 1.7 6.4 2.7 12.9 3.2 19.4l.6 5.8Zm-31 4.9v.3l1.3-.6-.1-.3-1.3.6Z" fill="#FFF3E4"/><path d="m350.7 301.2.7-.7c1.8-1.8 3.6-3.7 5.5-5.4 3-2.7 6.3-5.2 10-7a19 19 0 0 1 13.6-1.6c1.4.4 2.8 1 4 1.7 3.2 2 5 4.9 5 8.9-.2 7.7-4 13.3-10.2 17.4a25 25 0 0 1-22.2 2.9c-5.7-1.8-8.4-6.8-7.1-12.7l.7-3.5ZM356.9 358.5c4.7 4.4 10.3 4.6 16 4 4.9-.4 9.5-1.9 13.9-4.6 2.4 2 3 4.7 2.8 7.5-.2 2-.8 4.2-1.5 6.1-1 3-3.2 5.1-6 6.5a34.9 34.9 0 0 1-18.6 3.3 69 69 0 0 1-9.3-1.7c-1.5-.3-3-1-4.3-1.9-4.1-2.6-5.1-6.5-2.7-11 .6-1 1.4-2.1 2.3-3l3.5-2.9 3.9-2.3Z" fill="#FFD49C"/><path d="m20.2 269.8-1.2-.6a26.7 26.7 0 0 1-15.2-18.5c-1.3-4.8-.7-9.3 1.7-13.6a14 14 0 0 1 5-5.3c3.2-2 6.6-2.3 10.1-.7 1.3.6 2.5 1.4 3.7 2.1 2.6 1.6 5 3.1 8.2 3.2 1.6 3.3 2.4 7 5.6 9.3l-1-1.9a35 35 0 0 1-4.7-14.6 16 16 0 0 1 5.7-14.4 15 15 0 0 1 13.6-2.6c3.8.9 7.2 2.7 10.2 5.2 3 2.4 5.7 5 8.6 7.4 2 1.8 4 3.5 6.1 5a35 35 0 0 0 17.7 6.7c8.4.8 16.8 1 25.2.3 4.2-.3 8.5-.4 12.5-2 .6-.1 1.6.3 2.2.7a141 141 0 0 1 19.3 13.7c9.1 7.6 17 16.3 24.5 25.5l24 30 1 1.3c-2.2 1-4.2 2-6.4 2.7-10.5 3-21.3 5.2-32.2 6.5-15.5 1.9-31 2.4-46.5 2l-14.8-.4A138.8 138.8 0 0 1 54 307c-11-4.3-22-8.4-32.6-13.6-3.9-2-7.7-4-11.4-6.2-4.1-2.5-7-6-8.2-10.7a19 19 0 0 1 .8-11.4c.4-1.3 1.4-2 2.8-2.2 2.2-.5 3.7 0 5.3 1.7 2.6 2.8 5.9 4.4 9.6 5.2Zm53.2-19.9-.2.4c0 .3.2.7.4 1 .4 1 1.1 1.8 1.4 2.8.4 1.5 0 2.3-1.7 2.5a18 18 0 0 1-3.6.1c-3.4-.1-6.8-.4-10.2.3-6 1.2-10.9 5.8-10.5 13a25 25 0 0 0 4 12 50.9 50.9 0 0 0 23 19c.8.5 1.8.7 2.7 1-7.4-4.7-15.3-8.7-21.1-16l2.5.2c3.6.5 7.3.8 11 .4 6-.8 11.2-5.1 12.4-10.5 1.4-6.2-.3-11.4-5-15.6l-3.5-2.9c2.3-3 1.5-6.7-1.6-7.7Z" fill="#FFF3E4"/><path d="M67.3 258h4c2-.4 3.5.5 5 1.7 3.7 3 6.3 6.6 6.7 11.6a13 13 0 0 1-11 14.2c-4.8 1-9.7.2-14.5-.6-.6 0-1.2-.5-1.5-1-3-3.9-5.3-8.2-5.8-13.3a11.2 11.2 0 0 1 10.5-12.8h6.6v.1ZM362.4 334.7a26 26 0 0 1 17.8-7.7c1.8 0 4-.1 6.6.5 1.4.4 2.8 1 4 1.7.4.3 2.6 1.7 4.2 4.3 2.5 4.3 1.6 9 1.3 10.5-1.7 8.3-9 12.7-11 13.9-3.7 2.2-7 2.8-9.7 3.4-4.7.9-9.8 1.9-14.6-1-.9-.5-3.5-2-5-5.2-3.4-7.2 2.3-16.2 6.4-20.4Z" fill="#FFD49C"/><path d="M363 144c-.6 1.3-1 3.1-1.5 4.5l-3.8 11a41 41 0 0 1-19.2 22.1c.5 0-2.3 1.2-3 1.4l2.6-4.5a23.2 23.2 0 0 0 2.2-20.5C339 154 338 150 337 146c-.3-1-.3-2.3-.5-3.5 0-.4.4.3.1-.1-.6 2.5-.1 3 .4 5.3.8 3.5 2 7.3 3.1 10.7 3 9.2 1.2 17-5 24-.4.4-2.4 3-3 3.5-.6-4.3-1-10.1-1.7-14.5l3.7 1.8c-.7-1.4-2.6-3-4.8-3.5a18.3 18.3 0 0 0-15.9 3.3c-.8.7-1.5 1.6-2 2.5a3 3 0 0 0-.1 3c.4 1 1 2 1 3 .5 4.6 1 9.2 1.2 13.7.1 1.6-.4 2.7-.6 3.5-2.1 9.8-5.2 19-6.8 25-.9 3.1-.8 3.5-3.1 16.9-4.6 26.9-4.6 23.7-5.9 32.6-2 14.2-3.2 31.5-3.8 36.9-.7 6.5-1.6 13-3.1 19.4-1.3 5.8-3.6 11.3-5.4 17a61.1 61.1 0 0 1-11.4 20.9 42.8 42.8 0 0 1-19.5 13.5c-5 1.6-10 1.9-15 .2a14.1 14.1 0 0 1-9.1-8c-1.1-2.7-1-5.2 1.4-7.1 1.5-1.2 1.6-2.4.9-4.1-1.2-3-.6-6 .8-8.7a6.8 6.8 0 0 1 4.4-3.4c3.8-1.2 9.3-1 13.2 3.2-1.2 3.1-3.9 5-5.9 7.6a15 15 0 0 0 5.5-5c1.3-1.8 2.4-3.9 3.2-6 6-15 8.5-30.6 8.6-46.6v-57.3c-.1-11-.8-21.9-.7-32.8.1-16 1.1-31.8 4.1-47.5a209 209 0 0 1 8.4-30.9l1-3.7c-2 1.9-4 10.9-7.6 24.6-2.2 8.4-4 17.6-5 26.5-3.7-2-7.2-4.8-7.5-9l-.2-1.5c-.3-4.3-2.3-7.5-6.1-9.5l-2.6-1.3c-1.6-.8-1.8-1.2-1.3-3 .8-3.2 2.2-6 4.3-8.7l5.7-7.1c.5-.7.5-1.7.8-2.4 4.7-10 7.1-20.6 8.3-31.6.8-8 .8-16.2-.6-24.3-.5-3.3-1-6.6-2.8-9.6-.4-.7.6-1.1-1-1.2.7 1.6.5 1.8 1 3.2.6 1.6 2 3.2 2.3 4.8.4 1.5.3 3 .5 4.6.2 1.6-.1 5.4 0 7.1-2.9-1.8-6-5.2-8.8-7l1.2-12.7c.2-2.4 1.4-4.4 3.2-6.1l14.9-15a25 25 0 0 0 3.5-4.8c-1.3 1.1-1.3 2.3-2.1 3.1-1 .9-1.4 1.6-2.3 2.5-.8 1-2 2.1-2.9 3-.8.9-2 2.2-3 3-.8.9-2 1.6-3 2.5l-2.5 2.3c-.9.9-2.2 2.5-3.5 3.2 0-1.2.5-3.8.7-5 2-12.2 8-21.7 18.7-28.2l10.8-6.9a31.2 31.2 0 0 1 27-4 46 46 0 0 0 10.3 1.7c4.2.4 8.5.5 12.7 1a34 34 0 0 1 15.3 6.3c6.7 4.9 13 10 18.1 16.7.4.5.8 1 1.4 1.3-.8-2.7-2.6-4.7-4.4-6.8l-5.7-6c1.5-.2 2.8-.3 4-.7 4-1 7.8-2.1 11.6-3.4 5.8-2 10.2-5.9 13.9-10.5 2.2-2.7 4-5.7 6.3-8.3 6-7 13.5-10.4 22.7-9.8 4.7.3 9.7 1.5 13.6 4.1a44.8 44.8 0 0 1 16 17.5c2.6 5.4 4 11.6 4.5 17.5a16 16 0 0 0 2.5 6.5 99.6 99.6 0 0 1 12 39c1.6 13 .2 26.2-4.5 38.5-.8 2.1-2.3 4.6-3.5 6.5-1.8 2.8-1.9 5.8-1.5 9 2 17.8-8.5 31.1-21.5 37.5l-1.5.5c-3 1.1-4.6 3-6 6-.9 2-3.2 4-5 5a30.4 30.4 0 0 1-6.5 3 119.7 119.7 0 0 1-32.7 5.6c-4 .1-8 0-11.8-.7a25 25 0 0 1-18.5-15 55 55 0 0 1-3.8-12.7c-.1-.6 0-1.4.4-2 3.7-5.4 4.3-10.2 6.1-14 1.3-2.7 3.2-6.4 3.8-11.7Zm-2.8 15.2-.6.7v1.2c.5 3.5 1.5 6.8 2.8 10a28.4 28.4 0 0 0 27.7 18c8.2-.2 16-2 23.4-5.6 6.6-3.2 12-7.8 15.1-14.6 1-2 2.5-3.4 4.5-4.3l2-1c4.5-2.3 7.5-5.9 9.1-10.7a43.7 43.7 0 0 0 2.1-17.3l-.6-6.7c-.3-3.3.4-6.4 2.5-9 3.2-4.2 5.1-8.8 6-13.9.4-2.2 1-4.4 1.1-6.5.4-4.4 1-8.7 1-13-.4-8.6-3-16.7-6-24.6a48.8 48.8 0 0 0-7.5-12.4 13.9 13.9 0 0 1-3-7.1c-.2-2-.7-3.8-1.3-5.5a18 18 0 0 0-13-12.2 25 25 0 0 0-25.4 7.5c-2 2.1-3.8 4.7-5.2 7.3-2.4 4.7-4.4 9.5-6.5 14.3a26.5 26.5 0 0 1-7.5 11l-.3.7a9 9 0 0 0 4.2-3.9c1.7-2.7 3.2-5.6 4.7-8.5C392 48 394 42.5 397 37.6c5.3-9 13.5-13.5 24-12.8a18 18 0 0 1 16.7 12.5c.7 1.7 1.3 3.6 1.4 5.5a14 14 0 0 0 3.3 7.4c3.2 4 5.8 8.4 7.5 13.2 1.7 5.2 3.3 10.4 4.5 15.8.8 3.4 1 7 1 10.6 0 3-.5 6.1-.9 9.2-1 7.8-2.7 15.4-7.8 21.8a9.2 9.2 0 0 0-1.6 4.9c-.2 2.8 0 5.7.2 8.5.7 6.5-.1 12.8-2.2 19a16.4 16.4 0 0 1-8.5 9.7l-1.7.9c-2.4 1-4.2 2.8-5.3 5.2-2.9 6-7.5 10-13.3 13.1-6.2 3.3-13 5-20 5.9a28.5 28.5 0 0 1-30.7-16.4 44.8 44.8 0 0 1-3.4-12.4ZM285 63.3c.2 1 .3 2.9.7 4.7a20.6 20.6 0 0 0 31.9 12.8 23 23 0 0 0 5.6-32.2 20.4 20.4 0 0 0-29.4-4 23.1 23.1 0 0 0-8.8 18.7Zm54.4 44.6c1.8-7 6.3-11.3 12.8-13.8l2.4-.9-.2-.4a20.3 20.3 0 0 0-17.2 21.7c2.2-1 .8-3.3 2-4.4 3.7 1.6 5.8 1.8 8.3 1.3 8-1.7 10.6-10.5 8.2-17.5v5.4c-.1 3.2-1.2 6-3.4 8.2a9.2 9.2 0 0 1-13 .4Zm26.8-51-.5-.4-1.5 2.3a27 27 0 0 0-2.7 11.9c0 4 .5 8.2 1 12.2.6 3.4 1.5 6.8 2.2 10.1.3-.5.3-1 .3-1.4l-2-12.2c-1-7.6-.6-15 3.2-21.9v-.6Zm10.7 45.6c.8-4 1-8.5.5-13a76 76 0 0 1 .4-17.6V70l-.5-.1-.7 2.8c-.5 4.5-.5 9.1-.2 13.7.3 5.5.3 11 .5 16.1Z" fill="#FFF3E4"/><path d="M359.4 155.7a61 61 0 0 1 3.8-12.4c4.1-9.7 8-11.6 11-20.7 1.5-4.7 1.8-8.6 2.3-13.5.7-7.2.2-11 0-18.5 0-4.9 0-12 .7-20.7 1-2.5 2.3-3.8 3.4-4.5 1-.7 1.3-.7 2.3-1.5 1.7-1.2 2.4-2.7 3.1-4.2 1.1-2.2 2.4-4.2 3.4-6.5 2-4.8 4.7-11 7.6-15.6 2.5-4 4.5-7.3 8.3-9.8a23.4 23.4 0 0 1 25-.2c1 .7 4 2.8 6.2 6.6 1.6 2.9 1.5 4.6 2.8 8.6 1.3 3.6 4.7 9.2 6.7 12.7a72 72 0 0 1 7.6 16c2.4 7 2.2 12.6 2 21.7-.3 7-.5 12.8-3.6 19.5a36.6 36.6 0 0 1-5.3 8v.1c-.3 2.5-1 4.3-1.2 4.7-.7 2 0 4 .2 8.1 0 0 .2 3.7-.2 8.8-.5 6.9-.8 11.9-4.3 15.7-1.2 1.4-3.5 3-8 6.4-1.6 1.1-1.2 0-2.2 1-3 2.8-5.4 7-6.2 8.5-3 5.3-8.5 8-13.3 10.4-6 2.1-9.8 3.1-13 3.6-3.7.6-8 1.6-12.5 1a32.3 32.3 0 0 1-19.5-12.2 34 34 0 0 1-7.1-21.1ZM231.5 173.6a50.3 50.3 0 0 1-20.6-37.2c-.1-1.7-.3-3.4-.3-5.2-.1-2.2-.8-4.3-1.9-6.3-2.6-4.8-5.3-9.5-7.5-14.5a60.8 60.8 0 0 1-5.4-26.8c.3-7.9 2.5-15.2 7.9-21.1 2.8-3.2 3.9-6.6 3.8-10.6 0-3.8.4-7.5 1.6-11a23.6 23.6 0 0 1 17.7-16c5.2-1.3 10.6-.4 15.4 2.2 7.2 3.9 12.8 8.3 15.3 15.9.8 2.3 1 5.1 1.5 7.5.4 1.6.9 4.3.5 6-.7 3-1.5 6-2 9 0 .6-.4 1.6-.7 2-2.3 2.6-2 5.2-2.3 8.5l-.5 5.5c-.7 6-2 12-4.5 17.5-2.8 6-3.2 11.7-2.5 18 .8 7.3 3.7 14.3 6.5 21 .8 1.8.7 3.5-.5 5l-3.5 4.5c-2.6 3.3-5 7.8-6 12 0 0-.8-.4-1.3.4-1.6 2.9-4.7 7.5-10.7 13.7Z" fill="#FFD49C"/><path d="M259.5 52.5c-.6-2.5-1-6.2-1.6-8.3a28.5 28.5 0 0 0-14.4-16.7c-17-9.8-31 1.5-35.5 16-.4 3-1.4 7.4-1.5 10.5 0 2.7-.8 5-2.5 7-3.4 4-6.1 8-7.5 13a49 49 0 0 0-.7 22.2 80.7 80.7 0 0 0 9.5 24.7l2.2 3.7c1.3 2 1.8 4.1 2 6.5 0 5.3.4 10.6 2 15.7a55.4 55.4 0 0 0 15.9 24.3 37 37 0 0 0 3.5 2.3l-5.5 9.2-3.5-2.6a61 61 0 0 1-18.3-29.2c-.6-2.4-.8-4.9-1-7.3 0-3.3-1-5.2-3.6-7.5-3.5-3-5.9-7.8-8-12-4.7-9.2-8.6-18.6-10.4-28.9a54 54 0 0 1 3.6-30.2 30 30 0 0 1 6.3-9.5 9.9 9.9 0 0 0 2.7-6.1c1-8.3 3-16.3 6.2-24 4-9.7 10.2-17.1 19.6-21.7l1.3-.7c7.3-3.5 13.4-2.6 19.4 3l10 9.5c6 5.4 13.2 8.8 21.1 10.2 2.7.4 5.4.9 8 1.1 1.6.2 5.2.3 7.2.3-.7.6-3 1.7-3.5 2l-5.5 3.5a37.2 37.2 0 0 0-16 17l-1.5 3Z" fill="#FFF3E4"/><path d="M255 137.8c-.5 2.7-1.9.3-2 0-3-7.2-5.2-16-6-23.8a31.2 31.2 0 0 1 3.7-16.6l.5-.9.4-.5c1.6 5.8 5.4 8.8 11.6 9.3-1.2 11.3-3.6 22-8.3 32.5ZM245.3 191c1-1.4 2.3-3.5 3.8-6.1 1.3-2.2 1.3-2.5 1.9-2.9 2.1-1.4 5.5-.6 10.2.6l.8.2-.9 9.5a54.7 54.7 0 0 1-15.8-1.2Z" fill="#FFF3E4"/><path d="m251.7 181.6 3.6-4.8a10.2 10.2 0 0 0 4.7 5.1 17.2 17.2 0 0 1-8.3-.3Z" fill="#FFD49C"/><path d="m340.2 103.2-1.7 6.7 4.6.8h5l4.2-2 3.3-4.7.4-3.7v-5.8l-1.3-1.7-5.4 2-4.5 3-4.6 5.4ZM262.5 105c-7.2.4-12.1-5.7-10.2-12.2l1.6-6.3c3.2 1.4 5.7 3.3 7.8 5.9.5.6.9 1.5 1 2.3l-.2 10.3ZM278.9 258.2a54.6 54.6 0 0 0 27.1-20.9c2.3-3.4 7.7-11.7 8.1-21.6l.2-10.8c.3-10.4.4-9.2.3-11-.4-5.4-1-11-1.8-16.4-.2-1.8.2-2.9 1.6-3.9 4-2.9 8.4-3.4 13-2.8 1 0 1.4.7 1.6 1.6.4 2.4 1.4 4.7 1.3 7.2-.2 5.8 2 9.7 1.9 21.8a75 75 0 0 1-2.6 22.8c-2 6.4-4.4 14.7-12 22a54.7 54.7 0 0 1-38.8 12.1ZM239.6 256.8a49.2 49.2 0 0 1-16.4-22.3c-1.8-5.3-2.6-11-3.4-16.9a54.3 54.3 0 0 1 11.2-43.7c3.8-5 9-10.2 10.7-12l1.5-1.3a65.8 65.8 0 0 0 6.5 3.7c3.2 2 4.5 5.3 4.8 9v.8l-.4 2.9c-.3 2.4-13.2 16.4-17.6 27.3-2.3 5.8-2.7 11.8-3 17.8a72.9 72.9 0 0 0 6.2 34.7Z" fill="#fff"/><path fill-rule="evenodd" clip-rule="evenodd" d="M469.2 79.8c1.1 6 2 12 1.8 18.1a71.3 71.3 0 0 1-9 36 9.8 9.8 0 0 0-1.5 5.4c0 2.2.3 4 .6 5.6l.2 1.6c.2 1.3.2 3-.2 5.2 2 3.6 5.2 8.9 9.9 14.8 13.8 17.4 30 26.7 42.4 33.7 7.8 4.5 11 6 15.3 7.9a310 310 0 0 1 14.2 6.8c11 5.6 21.3 12 30.4 20.4a97 97 0 0 1 25.8 36.7l.6 1.8.3 1-.4.2h-.2l-1 .3c-2.9 0-5.4.9-8 2a85.5 85.5 0 0 0-20.6 13.1l-4.9 4.1c-5.6 4.8-11.3 9.6-17.2 14a199.3 199.3 0 0 1-73.9 34.3c-9 2.1-18.1 4-27.4 5.3-1.3.1-2.4.6-3.5 1.4-9.2 6.7-19 12-29.8 15.8-6.6 2.3-13.5 3.7-20.5 4.8l-2.7.5-.2.3-.1.3v.1l-.2.3-.3.6c-1.3 2.9-3.4 5-6.2 6.5a34.6 34.6 0 0 1-10.3 3.2l-1 .3-.5.2h-9.8l-.3-.1-.5-.1-3.8-.8c-2.8-.6-5.6-1.4-8-3.2a9.1 9.1 0 0 1-3.9-7.3c0-1.5-1-2.2-2.2-3-.6-.3-1.3-.8-1.7-1.4-.3-.4-1.4-.4-2-.3l-5.4.7-7.2.8-.6.1h-.6A127 127 0 0 1 278 364a55.6 55.6 0 0 1-3.3 4.1l-.7.9h-.1c-1.5 1.8-2.5 3-4.2 4.6-1.1 1-8 7-18.4 9-3 .6-5.3.5-6.5.5-4.5-.1-8.5-1.5-11.9-4.4-1.8-1.5-3-3.4-3.9-5.6-1-2.7-.5-5.1 1.6-7.2a18.3 18.3 0 0 0 1.4-1.4l-.3-.6c-.5-1.2-1-2.4-1.1-3.7v-.3l.2-2.3.1-.4c0-.5 0-1 .3-1.7 1.1-3.7 4.8-6.3 8.4-7.2-33-10.2-47.2-16.2-53.8-20-5.2-2.9-10.7-5-16.3-7l-8.7-3.3c-1-.5-2-.8-3.2-.6a406.7 406.7 0 0 1-77.1-1.2c-7.6-1.2-15-3.3-22.1-6-13-4.8-26-9.8-38.6-15.9a152 152 0 0 1-10-5.4c-3-1.8-5.4-4-7.1-6.8a18 18 0 0 1-2.2-13.3c.1-1 .3-1.7.5-2.4.5-1.3 1-2.7 2.3-3.8a6.3 6.3 0 0 1 4.3-1.1l-.5-.9-1-1.6a24 24 0 0 1-3.8-15.1c.6-5.1 2.8-9.4 7.1-12.4 4.2-3 8.7-3.3 13.3-.6l2.4 1.5 2.8 1.6c1.3.8 2.7 1.4 4.2 1.2l-.3-2.5c-.2-1.9-.4-3.6-.4-5.4 0-11 9.2-18.3 19.9-16.3 4.7 1 8.6 3.2 12.2 6.1a116 116 0 0 1 5 4.4c1 .8 1.7 1.2 3 .7 4.2-1.6 8.6-2.1 13-2.2 3.3 0 6.4-.7 9.6-1.5l1.3-.3c43.3-10 91-39 91-39 5-3.4 12.5-8.6 21.2-15.7l-.6-1.3c-3.1-6.1-5-12.5-5-19.4 0-1.9-.3-3.7-1.8-5a56.7 56.7 0 0 1-13.4-20.8 80.2 80.2 0 0 1-7-23.8 51.8 51.8 0 0 1 5.5-30.8c1.2-2.3 2.8-4.4 4.6-6.4 1.8-2 2.7-4.1 3-6.7 1-9 3.3-17.6 7-25.8A40.6 40.6 0 0 1 225.4.7a91 91 0 0 0 2-.7h5c3.4.8 5.7 3 8.2 5.4l.4.4 3.8 3.7a693 693 0 0 1 3.9 3.7 45.4 45.4 0 0 0 37.4 12.5c1.2-.3 2.3-.7 3.3-1.3a32.4 32.4 0 0 1 25-3.3 49.8 49.8 0 0 0 15.9 2.2c11 0 20.5 3.6 28.8 10.6l.3.2c.6.6 1.3 1.2 2.4 1 8.6-.9 17-2.9 24.2-8 3.2-2.4 5.7-5.4 8-8.5l1.4-2L398 13c5.8-7 13.4-10.5 22.4-10.5 3.4 0 6.7.8 9.7 2.2a40.2 40.2 0 0 1 23.2 26.1c.6 2.4 1.2 4.8 1.6 7.2.7 5 2.2 9.5 4.7 13.8 5 8.7 7.7 18.2 9.6 28Zm-260.5 85.6a319 319 0 0 1-116.2 54.5l.4.3.4.2 1.2.2H94.8c8.5 1 16.8 2.8 24.8 5.7 10 3.7 19 9.4 27.5 15.7a169 169 0 0 1 31.4 30.7l18.2 22.6v.1l14.5 18.1a230.2 230.2 0 0 0 22.3 24.6 48.6 48.6 0 0 0 18.5 12.3l-.5.8-.1.4.5-1 1-1.9a127 127 0 0 0 6.8-28.8c1.2-10.7 1-21.4 1-32.2a1976.5 1976.5 0 0 1 0-13.3v-28.8l-.4-12.1-.4-12.6c-.2-8.7 0-17.5.7-26.3v-1l-.1-.5a51.1 51.1 0 0 1-15.8-1.2 60.8 60.8 0 0 0-11.1 34.8 65.7 65.7 0 0 0 7.2 30l.2.5-.4.3a34.6 34.6 0 0 1-4-3s-2-1.6-4-3.7c-4.6-5-7.7-10.9-8-11.4a64.3 64.3 0 0 1-.1-55.8 62.4 62.4 0 0 1-15.8-18.1v-.1Zm16.5 16.9c-3.1-2.7-5.4-5-7-6.8-3.6-4-12-13.3-13.5-23.3l-.7-3.3c-.3-1.6-.7-3.2-.8-4.9v-.4c-.2-1.7-.4-3.7-1.7-5.7a9.9 9.9 0 0 0-2-2.3c-3.4-3-6-7-8-11-4.7-9.3-8.7-18.7-10.4-29a54 54 0 0 1 3.6-30.2 30 30 0 0 1 6.3-9.5 9.9 9.9 0 0 0 2.7-6.1c1-8.3 3-16.3 6.1-24 4-9.7 10.3-17.1 19.7-21.8l.5-.2.7-.4c7.4-3.5 13.4-2.6 19.4 3l2.7 2.6a355 355 0 0 0 7.4 6.9c6 5.4 13.1 8.8 21.1 10.2l8 1.1a26 26 0 0 0 5.3 0l-.6.6-.9.7a253.2 253.2 0 0 0-6 3.8 39.5 39.5 0 0 0-16.7 18.4l-.4.7-.5-2.4c-.4-1.5-.7-2.9-1.2-4.2a30.1 30.1 0 0 0-14-18c-17-9.8-35.1 3.1-36.9 18a98 98 0 0 0-.7 9.3c0 2.7-1 5-2.7 7-3.4 3.9-6 8.2-7.4 13.3-2 7.4-1.8 14.8-.4 22.3a80.7 80.7 0 0 0 10.1 25.6l1.6 2.8c1.3 2 1.9 4.1 2 6.5 0 5.3.4 10.6 2 15.7a59 59 0 0 0 18.7 26.8 65.2 65.2 0 0 0-5.4 8.2Zm6.2-9.3c-4.8-3.4-8-7-10-9.5-7.7-10-10-22-10.2-27l-.2-2-.1-3.3c-.1-2.2-.8-4.3-1.9-6.3l-1.3-2.5c-2.2-4-4.4-7.9-6.2-12a60.7 60.7 0 0 1-5.4-26.8c.3-7.8 2.5-15.2 7.9-21.1a15 15 0 0 0 3.8-10.6c0-3.8.4-7.5 1.6-11a23.6 23.6 0 0 1 17.7-16c5.2-1.3 10.6-.4 15.4 2.3A29.5 29.5 0 0 1 257 44.4c.7 2 1.2 4.2 1.6 6.3l.2.9c.4 1.6.2 3.2-.2 4.9l-1 6.1a153 153 0 0 1-.9 4.7c-2.3 2.7-2.6 5.9-2.9 9.1v2.3l-.3 3c-.6 6-2 11.8-4.5 17.3-2.8 6-2.9 12-2.2 18.4.9 7.3 3.3 14.1 6 20.8.9 1.9.7 3.3-.5 4.8l-1.6 2.2-1.5 2a28.5 28.5 0 0 0-5.8 11.6l-.1-.6a2900.8 2900.8 0 0 0-11.8 14.8Zm11.9-12-2.2 2a114 114 0 0 0-11.2 14.6 58.8 58.8 0 0 0-10 40.6c.4 2.8 1.7 13 7.4 23.5 3.7 6.9 8 11.3 11.2 14 .7-.4.4-.9.2-1.3l-.2-.4-1.2-3c-.8-2-1.6-4-2.2-6.1a63 63 0 0 1 8-53.4c4-6.6 7.8-11.8 10.8-15.5l1.4 2c-.9 1-2 2.1-3 3.5a16.7 16.7 0 0 0 7.3 0l-1-.7-2.3-1.9c-.7-.7-1.2-1.5-1.8-2.4l-.3-.4-.2-1.3-.3-1.6v-.6c-.5-2.3-1-5-2.6-7a9.9 9.9 0 0 0-2.2-2h-.1a18.4 18.4 0 0 0-5.5-2.7Zm8 21.7a121.2 121.2 0 0 0-5.9 8l-.2.3a53.6 53.6 0 0 0 15.5 1.2l.6-6.4.3-3a62.9 62.9 0 0 1-10.3 0Zm-7 165.3c-3.2-2-6.7-4.4-10.3-7.5-5.3-4.5-9-8.4-15.7-16.2a618 618 0 0 1-14.3-17.2l-2.7 1-5.2 2a197 197 0 0 1-29.3 6l-3.3.5-1.6.3a1035.6 1035.6 0 0 0 80 31l2.4.1Zm34.3 15a46 46 0 0 0 5.9-11.4l2.3-6.9c1.1-3.4 2.2-6.8 3.5-10.2 1.4-4 2.8-11 4.6-24.4 1.2-8 1.6-13 2.1-18.3a504.7 504.7 0 0 1 4.4-35.3 41 41 0 0 0 20.8-15.4c1.2-1.7 5.8-8.6 8.7-22.8 2.8-13.6 2-24.9 1.4-32 .5-1 1.3-2.1 2.5-2.7l.8-.3a29.8 29.8 0 0 0 16-10.8l.3-.2a57.7 57.7 0 0 1 .8 2.9l.8 3c.7 2.3 1.4 4.7 2.4 6.9a26.4 26.4 0 0 0 24.4 16c13.8.6 27-2.2 40-6.2 3-1 6-2.6 8.4-4.8a14 14 0 0 0 3.1-3.8c1.4-2.7 3.3-4.3 6-5.5a39.6 39.6 0 0 0 20.8-22.2c.7-1.3 1.2-2.6 1.5-3.6 10.7 13.5 26.5 32.1 40.4 40l1.2.7c4.6 2.6 8 4.5 31.4 15.9a205 205 0 0 1 27.5 15.5 111.2 111.2 0 0 1 36.7 42.5l1 3-2.2-.2-5-.5c-5.1-.7-10 0-15 .7-15.4 2.5-30.2 7.4-45 12.2l-.3.1-2.8 1c-9 2.9-17.9 5.8-27 7.6-4 .8-8.1 1.4-12.2 1.7a39 39 0 0 1-23.5-6.3 312.2 312.2 0 0 1-13.5-9l-13.8-9.3-2-1.2-1-.8-1.4-1a50 50 0 0 0-23-8.6c-6.3-.7-12.4-.3-18 3.1l-.2.1c-1.7 1.1-3.5 2.2-4 4.4 0 .3-.4.6-.7.8a65 65 0 0 1-13.5 5.5c-3.9 1-7.7.5-11.2-1.3-2.5-1.3-5-2.7-7.3-4.2a34.2 34.2 0 0 0-25.4-6.3c-6.5 1.1-10.2 6.6-9 13.2.5 3.2 1.6 6.3 3 9.2a135 135 0 0 0 13.1 21l1.3 1.9c2.6 3.6 3.8 7.7 3.3 12.2-.6 6.2-1.3 12.4-3 18.5-.5 2.1-1.3 4.2-2 6.3a21 21 0 0 0 2 20.7v.4l.2.4-2 .3-4.7.7a141.8 141.8 0 0 1-53.9-2.8Zm18.2-87.9c.7-7.8 1.4-14 1.9-17.8l-1.2.4a54.6 54.6 0 0 1-25.6 1.5l4.3-1.4c3.1-1.1 6.2-2.1 9.2-3.4a39.6 39.6 0 0 0 15.4-10h-.3a367.3 367.3 0 0 1 13-49.6 79.5 79.5 0 0 0-2.5-16.4v-.1c-.4-1-.3-1.8.2-2.7.6-.9 1.2-1.8 2-2.5a18.2 18.2 0 0 1 16-3.3c2.2.4 4 2 4.8 3.5l-3.7-1.8.4 2.5v.1c.5 2.6 1 6.2 1.5 10.5l.3-.2 1.4-1.3a23.5 23.5 0 0 0 5.7-24.2l-3-10.2a15 15 0 0 1-.4-7.2c.3.3.5.7.6 1.2l.1 1.3a13.6 13.6 0 0 0 .7 3.4l.1.5.1.4c.9 3.3 1.8 6.5 2.9 9.7 2.5 7.3 1.6 14-2.2 20.5l-1.2 2-1 1.5.7-.1.7-.2a25 25 0 0 0 7.6-4.5 40 40 0 0 0 12-18.1 378.8 378.8 0 0 1 5.1-14l.6-1.2h.4l-.2.6-.2.8-1.1 3.3-2.3 7c-1.5 5-3.2 9.8-6.2 14.2-.3.5-.5 1.3-.4 1.9a55 55 0 0 0 3.9 12.7 25 25 0 0 0 18.4 15c3.9.7 7.9.8 11.8.7 11.2-.4 22-2.8 32.6-6.2 2.3-.7 4.4-2 6.4-3.1l.4-.3c1.8-1 3.3-2.4 4.2-4.3 1.4-3 3.6-5 6.7-6.1.2 0 .4-.2.5-.3l.3-.1c9.3-4.6 17-12.7 20-23.4 1.3-4.3 1.8-9 1.2-14.2-.4-3.2.3-6.3 2.1-9a78 78 0 0 0 7.8-44.1A101.7 101.7 0 0 0 457 49.4c-1.2-2-1.8-4.3-2-6.7a51 51 0 0 0-4.6-17.1 44 44 0 0 0-16-17.2 26.2 26.2 0 0 0-35.7 5.2l-3.6 4.6-2.8 3.7a30.5 30.5 0 0 1-13.8 10.5c-3.4 1.1-7 2.1-10.4 3l-1.2.4-2.7.5-1.4.2 1.9 2 3.8 4c1.8 2 3.6 4.1 4.4 6.8l-1.4-1.3a82.4 82.4 0 0 0-18-16.7 34 34 0 0 0-15.3-6.3l-8.4-.7c-1.5 0-3-.1-4.4-.3a46 46 0 0 1-10.3-1.7 31.2 31.2 0 0 0-27 4l-3.7 2.4-7 4.5a38.6 38.6 0 0 0-19 31.8c1.4-.8 2.3-1.6 3.1-2.5l2.7-2.7 1.4-1.3 1.4-1.3 1.8-1.8.7-.8.3-.2.1-.2 2.3-2.3 1-1 1.5-1.8c.3-.2.5-.5.7-.9.5-.6 1-1.3 1.8-1.5a25 25 0 0 1-3.5 4.8c-4.9 5-9.8 10.1-14.9 15-1.7 1.8-3 3.8-3.2 6.2l-.9 8.7c0 1.4-.2 2.7-.3 4l6.3 3.9 2.1 1.3v-1.3a80.5 80.5 0 0 0-1.3-8.1 39.7 39.7 0 0 0-2.7-7.7l-.6-1.4c1.3 0 1.7.8 2 1.5l.3.3c1.6 3 2.2 6.3 2.7 9.6 1.4 8 1.4 16.2.6 24.3a96.2 96.2 0 0 1-8.6 32.6c-.1.5-.2 1-.5 1.4a124.3 124.3 0 0 1-5.7 7.1c-2 2.6-3.5 5.5-4.3 8.7-.5 1.8-.3 2.2 1.3 3l.6.3 2 1c3.8 2 5.8 5.2 6.1 9.5l.1.7.1.7c.3 4.3 3.3 6.4 7 8.3.9-8.9 2.4-17.4 4.5-25.7 3.6-13.7 6.6-22.7 8.7-24.6l-.5 1.5-.6 2.2c-3.6 10.1-6.4 20.4-8.4 31-3 15.6-4 31.5-4.1 47.4 0 6 .1 12.2.3 18.2a5036.6 5036.6 0 0 1 .3 71.8c0 16.1-2.5 31.8-8.5 46.7-.8 2.1-2 4.2-3.2 6a15 15 0 0 1-5.5 5l2.1-2.4c1.5-1.5 3-3 3.8-5.2a12.8 12.8 0 0 0-13.2-3.2 6.8 6.8 0 0 0-4.4 3.4c-1.4 2.8-2 5.7-.8 8.7.7 1.7.6 2.9-1 4.1-2.3 2-2.4 4.4-1.3 7.1 1.7 4.2 5 6.6 9.2 8 5 1.7 10 1.4 15-.2a42.8 42.8 0 0 0 19.4-13.5 61 61 0 0 0 11.4-21l1.8-5.2c1.3-3.8 2.7-7.7 3.6-11.7 2-9 3-17.6 3.1-19.4l3.3-35Zm14.7-51.8a49.5 49.5 0 0 1-8.8 18.8 284.7 284.7 0 0 1 11-41.5 128.6 128.6 0 0 1-2.2 22.7Zm1.7-43.3a445 445 0 0 0-.5-3.4c0-1.3.5-2.2 1.6-3 4-2.9 8.5-3.4 13.2-2.8.9 0 1.3.7 1.4 1.6l.1.2a138.9 138.9 0 0 1 1.8 35.8c-.5 8.6-2 16.9-5.3 24.5-2.4 5.5-5.6 10-9.4 13.5-2.6 2.3-5 3.7-7 4.9a57.5 57.5 0 0 1-30.2 7.6l-.1-.6a427.5 427.5 0 0 1 6.2-2.5 51 51 0 0 0 18.4-12.8c5-6.3 7.6-13.3 8.7-17.2 1.3-4.5 1.7-8 2.2-12.3.9-7.6.7-13.8.5-17.3-.2-4.4-.7-8.7-1.6-16.2Zm-59-41.3c0 .2.2.3.3.5a104 104 0 0 0 8.2-32.5c-6.1-.5-10-3.5-11.5-9.3l-.2.2-.3.3-.3.7v.2c-2.6 5.3-3.2 11-2.6 16.8.7 8 3 15.4 6 22.6 0 .2.2.3.4.5Zm8.7-44c0-.8-.3-1.7-.8-2.3a21 21 0 0 0-7.8-5.9l-.5 2-1.2 4.3c-1.9 6.5 3 12.6 10.2 12.2V102c.1-2.5.2-5 .1-7.4Zm100.7 76.9a44.8 44.8 0 0 1-3.4-12.4 12 12 0 0 1-.6.7v1.2c.5 3.5 1.5 6.8 2.9 10a28.4 28.4 0 0 0 27.6 18c8.2-.2 16-2 23.4-5.6 6.6-3.3 12-7.8 15.1-14.6 1-2 2.5-3.4 4.5-4.3l1.2-.6.8-.4c4.5-2.3 7.5-5.9 9.1-10.7a43.5 43.5 0 0 0 2-19.4l-.5-4.6c-.3-3.3.4-6.4 2.5-9 3.2-4.2 5.1-8.8 6-13.9l.4-2.2c.3-1.5.6-2.9.7-4.3l.3-2.7c.4-3.5.8-7 .6-10.4-.3-8.5-2.9-16.6-6-24.5a48.9 48.9 0 0 0-7.4-12.4 13.8 13.8 0 0 1-3-7.1c-.2-2-.7-3.8-1.3-5.5a18 18 0 0 0-13-12.2 25 25 0 0 0-25.4 7.5c-2 2.1-3.8 4.7-5.2 7.3-2 4.1-3.9 8.4-5.7 12.6l-.8 1.7a26.6 26.6 0 0 1-7.5 11l-.2.4-.1.3a9 9 0 0 0 4.2-3.9c1.7-2.7 3.2-5.6 4.7-8.5l2.6-5.6c1.5-3.4 3-6.8 5-10 5.2-9 13.4-13.4 24-12.7a18 18 0 0 1 16.6 12.5c.7 1.7 1.3 3.6 1.4 5.5a14 14 0 0 0 3.3 7.4 46 46 0 0 1 7.5 13.2c1.7 5.2 3.3 10.4 4.5 15.8a50.2 50.2 0 0 1 .3 18.6l-.2 1.2c-1 7.8-2.7 15.4-7.8 21.8a9.2 9.2 0 0 0-1.6 4.9c-.2 2.8 0 5.7.2 8.5a45 45 0 0 1-2.2 19 16.5 16.5 0 0 1-9 10l-1.2.6c-2.4 1-4.2 2.8-5.3 5.2-2.9 6-7.5 10.1-13.3 13.1-6.2 3.3-13 5-20 5.9a28.5 28.5 0 0 1-30.7-16.4ZM285 63.3c.2-8 3-14.1 8.8-18.7a20.4 20.4 0 0 1 29.4 4 23 23 0 0 1-5.6 32.2A20.6 20.6 0 0 1 285.7 68a31 31 0 0 1-.7-4.7Zm41.2-3.2-.6-3.7A19.5 19.5 0 0 0 294 45.8a22 22 0 0 0-3.8 29.4 19.1 19.1 0 0 0 26.4 4.9c6.4-4.3 9.4-10.5 9.8-18.8l-.2-1.2Zm26.1 47.4a9.2 9.2 0 0 1-13 .4c2-7 6.4-11.3 12.9-13.8l2.4-.9V93l-.2-.2a20.3 20.3 0 0 0-17.2 21.7c1.3-.6 1.3-1.6 1.4-2.6 0-.7.1-1.3.6-1.8 3.7 1.6 5.8 1.9 8.3 1.3 8-1.7 10.6-10.5 8.2-17.5a167.8 167.8 0 0 0 0 5.5c-.1 3-1.2 5.8-3.4 8.1Zm44.5 154.3.1-.2c-3 .4-6.5 2.7-6.8 4.6l2.5-1.6a634.9 634.9 0 0 0 4.2-2.8Zm-8.7 109.7c.8-2 1.3-4 1.5-6 .2-3-.4-5.6-2.8-7.6-4.3 2.7-9 4.3-14 4.7-5.6.5-11.2.4-16-4l-1.2.7a29 29 0 0 0-6 4.4c-1 .9-1.8 2-2.4 3-2.4 4.5-1.4 8.4 2.7 11a14 14 0 0 0 4.3 2 70 70 0 0 0 9.3 1.6c6.5.5 12.7-.5 18.6-3.3 2.8-1.4 5-3.5 6-6.5Zm-22.5-38.3a26 26 0 0 0-9.7 14c-1.8 7.1 1 13.3 9.7 14.4 4 .5 7.8.3 11.7-.6 7.4-1.7 13-6 17-12.3 4.5-6.9 2.4-15.3-4.6-19.2-2.8-1.6-5.5-1.9-7-2a22.4 22.4 0 0 0-10.7 1.9l-.6.4h-.3l-.4.3v-.1c-1 .4-1.9.9-2.7 1.4l-.1.1-.2.1-.2.2-2 1.4Zm47.1 31.1a115.3 115.3 0 0 0 43.5-27.2 239.9 239.9 0 0 0 32.9-39.6l.3-.7a102.4 102.4 0 0 1-1.4 0c-7.2 0-14.1-1.4-20.5-4.9a136 136 0 0 1-10.8-6.7 3069 3069 0 0 0-25.2-17 47.6 47.6 0 0 0-29.3-8c-1 .1-2 .3-2.8.8l-2.4 1.8-2.7 1.9a120 120 0 0 1-16.1 7.9c-6 2.5-11.8 2.2-17.5-1a144 144 0 0 1-5.7-3.5l-.7-.4c-3.4-2.1-7-4-10.9-5a29.4 29.4 0 0 0-13.2-.7c-5.7 1-8.4 5.6-8 10.7.2 3 1 6 2.4 8.7a369 369 0 0 0 8.9 15.5l4.1 6.1 2.7 3.8c2.5 3.7 3.3 7.8 2.8 12.2l-.6 5.2v.6c-1 6.6-2.2 13-4.7 19.2-.8 2-1.2 4-1.5 6.1-.9 6 1.7 13.9 9 18.5 1-2.5 2.4-4.7 4.5-6.3 1.4-1.2 3-2.2 4.5-3.2l1.8-1.3v-.2a31 31 0 0 0-.4-1l-1-2.7c-.9-3.6 0-6.9 1.4-10.1 2.2-5.1 5.8-9 10.3-12.3.6-.4 1.4-1 1.4-1.5a25 25 0 0 0-1-9.2c-.2-.7-.7-1.1-1.5-1a24.1 24.1 0 0 1-11-2.2 12 12 0 0 1-5.8-10.4c0-3.6 1.6-7 4.3-9.3l.3-.3c4.3-4.6 9.1-8.5 14.9-11a19 19 0 0 1 15.9-.1c4.6 2 7 6 6.8 11-.2 3.3-1 6.4-2.6 9.3a24.2 24.2 0 0 1-11.9 10.6c-1.8.7-3.7 1.3-5.6 1.8l-2.3.7V330c2.4-1.3 8.4-4.2 15.8-3 2.8.5 7.4 1.3 10.5 5.2 3.4 4.1 4 10 1.4 15.6a24 24 0 0 1-6 7.4l-1.5 1.3-.3.3-.3.3c3.5 3.6 3 7.8 2.4 12.2h.6l1-.1c7-1.2 14-2.5 20.8-4.9ZM350 304.7c-1.3 5.9 1.4 11 7.1 12.7a25 25 0 0 0 22.2-2.8c6.2-4.1 10-9.8 10.1-17.5 0-4-1.7-6.9-5-8.9-1.1-.7-2.5-1.3-3.9-1.7a19 19 0 0 0-13.6 1.6c-3.7 1.8-7 4.3-10 7l-4 3.8-.4.5a12.5 12.5 0 0 0-2.4 5l-.1.3Zm212.6-10.2 7.7-6.4a73.4 73.4 0 0 1 25.2-14.2 49 49 0 0 0-15.7-.4c-8.8 1.2-17.4 3-26 5.6l-25.3 8-10.6 3.3c-8 2.6-16.3 4.8-24.7 5.9-2 .2-3 1-4 2.6-2.9 4.2-5.8 8.4-8.8 12.4a186.1 186.1 0 0 1-33.2 35.2l-.1.2-.2.2h.6l.8-.1 8.7-1.8c6.8-1.4 13.6-2.8 20.3-4.5a197 197 0 0 0 72.7-35.6c4.4-3.3 8.5-6.8 12.6-10.4Zm-491-70.7h.6l4.4-.8 1.7-.3 4-.7c3.6-1 7.3-.4 11 0a110 110 0 0 1 26.8 6.5c2.4.9 4.7 2 7 3.1l2.7 1.4.9.5.4.3-.2.6-3.5.4-6.6.8c-8 .8-16 .5-24 0A38.4 38.4 0 0 1 72.5 225l-.9-.5-.4-.2.2-.1v-.1l.2-.4Zm46.3 93.4-6.4-.2c-2.8 0-5.6 0-8.4-.2a138.7 138.7 0 0 1-53.9-11.6c-9.4-3.6-18.8-7.3-28-11.8-3.8-2-7.6-4-11.3-6.2-4-2.5-7-6-8.2-10.7a19 19 0 0 1 .8-11.4c.5-1.3 1.4-2 2.8-2.2 2.2-.5 3.8 0 5.3 1.7 2.6 2.7 5.9 4.4 9.6 5.2l-.4-.2-.8-.4a26.7 26.7 0 0 1-15.2-18.5c-1.3-4.8-.7-9.3 1.7-13.7a14 14 0 0 1 5-5.2c3.2-2 6.6-2.3 10.1-.7 1.1.5 2.1 1.1 3.2 1.8a15.6 15.6 0 0 0 8.8 3.5l1 2.3c1 2.6 2 5.2 4.5 7l-.4-.8-.6-1.1a35 35 0 0 1-4.7-14.6 16 16 0 0 1 5.7-14.4 15 15 0 0 1 13.6-2.6c3.8.9 7.2 2.7 10.2 5.2l4.9 4.2 3.7 3.2c2 1.8 4 3.5 6.1 5a35 35 0 0 0 17.7 6.7c8.4.8 16.8 1 25.2.3h1.6c3.7-.4 7.4-.6 11-2 .5-.1 1.5.3 2.1.7 6.9 4 13.2 8.7 19.3 13.7a181 181 0 0 1 24.5 25.5c6 7.3 11.8 14.6 17.6 22l6.5 8 .5.7.4.6-2.1 1-4.3 1.7c-10.5 3-21.3 5.2-32.2 6.5-15.5 1.9-31 2.4-46.5 2Zm-44.5-67.3c3.1 1 4 4.7 1.6 7.7l1 .9 2.5 2c4.7 4.2 6.4 9.4 5 15.6-1.2 5.4-6.4 9.7-12.3 10.4-3.8.5-7.4.2-11.1-.3-.5 0-1 0-1.8-.2h-.7c4.8 6 11 9.8 17.2 13.6a280.9 280.9 0 0 1 3 2.1l-1.8-.6A51 51 0 0 1 53 282a24.9 24.9 0 0 1-4-12.1c-.5-7.2 4.4-11.8 10.4-13a34.7 34.7 0 0 1 10.2-.3l3.6-.1c1.6-.3 2.1-1 1.7-2.5a8 8 0 0 0-1-2l-.4-.8-.4-1 .1-.3a1.1 1.1 0 0 0 .1 0Zm-6.1 8-2-.1h-4.6c-6.8.6-11.1 6-10.5 12.8.5 5.1 2.8 9.4 5.8 13.4.3.4 1 .9 1.5 1 4.8.7 9.7 1.5 14.6.5A13 13 0 0 0 83 271.3c-.4-5-3-8.6-6.7-11.6-1.5-1.2-3-2-5-1.8h-4Zm334.3 65.4.1 1.6H402v-.4l.1-.7-.1-2.9-.5-7.5a89.9 89.9 0 0 0-4-20.2 29.2 29.2 0 0 0-4.8-9.7c-.7-.8-1.5-1.5-2.3-2.1-.3-.2-.6-.1-1 0h-.5l.2.4c0 .4.2.7.4.9 2.2 1.8 3.8 4.1 4.8 6.7 1.3 3.4 2.6 6.8 3.6 10.3 1.7 6.4 2.7 12.9 3.2 19.4l.4 4.2ZM376.8 98c0-3.7-.2-7.7-.4-11.6-.3-4.6-.3-9.2.2-13.7l.5-2 .2-.8h.6v.7l-.1 1.3a76 76 0 0 0-.4 17.5c.5 4.6.3 9-.5 13.1l-.1-4.5Zm-10.6-41V57l-.5-.4-.5.7-1 1.6a27 27 0 0 0-2.7 11.9 104.1 104.1 0 0 0 3.2 22.3c.3-.5.3-1 .3-1.4a494.4 494.4 0 0 0-2-12.2c-1-7.6-.6-15 3.2-22v-.3Z" fill="#2F354D"/><path d="M326.4 61.3c-.4 8.3-3.4 14.5-9.8 18.8a19.1 19.1 0 0 1-26.4-4.9 22 22 0 0 1 3.8-29.4c11.3-9.4 28-3.8 31.6 10.6.4 1.8.6 3.7.8 5Z" fill="#fff"/><path fill-rule="evenodd" clip-rule="evenodd" d="M305.7 53h1.2a8 8 0 0 1 3.9 1.5l-1.3 2c-1-.6-1.9-1-2.7-1h-.7c-1 0-1.5.5-1.6 1.2-.2 1 0 1.6.3 2.2.4.6 1.1 1.2 2 2l.1.1c.8.7 1.7 1.4 2.4 2.3.8 1 1.4 2.3 1.2 4 0 1.3-.6 2.4-1.5 3.1a4.1 4.1 0 0 1-3 .8 8.7 8.7 0 0 1-5.1-2.5l1.5-1.7c.9.8 2.4 1.6 3.7 1.7.7 0 1.2 0 1.5-.3.3-.2.5-.6.6-1.5 0-.8-.2-1.4-.6-2l-2.1-2h-.1c-.8-.8-1.8-1.6-2.5-2.7s-1-2.5-.7-4.1c.4-2 1.9-3 3.5-3.2Zm-11.3 6.3c-1 0-2 .8-2 2-.1 1.1.7 2.2 1.8 2.3h.1c1 .1 2-.7 2-1.8.1-1.2-.7-2.3-1.8-2.5Zm23.6 1c-1 0-2 .8-2 2-.1 1.2.7 2.2 1.8 2.4h.1c1 0 2-.7 2-1.9.1-1.2-.7-2.2-1.8-2.4Z" fill="#2F354D"/><path d="M588.3 254.9a239 239 0 0 0-38.1 2l7.7 19.9-.3.1-4.1-9-4.3-9c-.5-1-1-1.6-2.4-1.3-9.9 1.9-18.9 6-28.2 9.9l4 11.1-.4.2-4.8-10.8a65.7 65.7 0 0 1-30.4 7.5l3.3 20.3-.3.1-4.8-20.5a64 64 0 0 1-28.5-13c-6.7-4.8-13.8-9.2-21-13.4a51 51 0 0 0-22.4-6v15.8h-.8l-.7-15.7c-17.6-.5-29.6 9.5-41 20.7 9.6-10.7 20-20 35.2-21.8a56.3 56.3 0 0 1 39 10.5c6.5 4.4 12.7 9.5 19.4 13.8a45.3 45.3 0 0 0 47 3.1c9.6-3.8 19.1-8 29-11a118 118 0 0 1 22.5-4c7.8-.8 15.6-.7 23.4-1 .8 0 1.5.6 2.3.9l-.3.6ZM235.6 339.8l18.4-27.3-24.7-24.5c-8.2 5.3-15 12.7-22.6 19.3l-.5-.6 22.3-20.3c-16.6-18.5-33-37.3-51.3-54.8l-20.8 17.2-.6-.8 20.3-17.3c-5.2-3.6-10.3-7-15.3-10.8-2.8-2-4.8-2-7.7 0-6.3 4.4-13 8.2-19.5 12.2-.3.2-.7.3-1.3.1l23.3-15.3-20-11.4v-.4c.6 0 1.3 0 1.7.2 16.6 9.4 33.6 18.3 47.2 32.1 9.3 9.5 18.2 19.2 27.2 29 9.8 10.6 19.3 21.6 29.3 32 5.5 5.7 11.8 10.7 17.7 16l1.9 2-.5.4-4.9-3.8a258.2 258.2 0 0 1-19.1 27.2l-.5-.4ZM459.3 235.2l12.6 3.6a159 159 0 0 0 29.5 6.3c8.2.8 16.4.5 23.9-3.4a18 18 0 0 0 4.6-3.5c3-3.2 2.7-6.8-.8-9.5-1.3-.9-2.7-1.6-4-2.4 4.3.5 8 4.2 7.6 7.9-.2 2.7-2 4.6-4 6.2-4 3-8.6 4.5-13.6 5.2a91.4 91.4 0 0 1-34.4-3.7c-7.2-1.9-14.4-4.1-21.6-6.2l.2-.5ZM290.3 332.3a57.8 57.8 0 0 0 51.6-9c-.4 3.1-17.4 11-25.8 11.9-11.4 1.2-24.8-.2-25.8-2.9ZM260.8 186.2c1-1 1.7-2.3 2.7-3.2 4.3-3.7 9.5-4.5 14.8-4.6 7 0 13.1 2.4 18.8 6.4.3.2.6.6.8 1-5.7-3.8-11.9-6.1-18.7-6.2-6.8 0-13.3 1.1-17.6 7.4a60 60 0 0 1-.8-.8ZM169.7 199c8.3 2.9 15 8.2 20.6 13.8l-20.6-13.9ZM289.2 163.6c-8-1.8-18.4-.6-25.4 4.6.5-.6 1-1.3 1.6-1.8 3.7-2.8 8.1-3.9 12.7-4.3 3.8-.2 7.6-.2 11.1 1.5ZM466.4 190.6a97.7 97.7 0 0 0 26 20.8 75 75 0 0 1-26-20.8ZM260.6 200.1c.3-5.2 16.9-7.7 23.2-3.5-12.6-2.4-16.8-1.7-23.2 3.5ZM427.7 226l10.5 2.7v.3l-10.6-2.6v-.5ZM413.3 212.4H404v-.1h9.3Z" fill="#2F354D"/></svg>
