<svg width="88" height="74" fill="none" xmlns="http://www.w3.org/2000/svg"><path d="M86 17.9c-.7-2.3-5-14-14.8-16.2-3.7-.8-7 .1-12.5 1.8a81 81 0 0 0-20.2 9.8C34 16.1 35.9 15.4 17 30.6c-5.4 4.3-9 7.2-12 12.5-1.8 3-4.4 7.6-3.2 12.7.3 1.3.8 2.4 4 7.3l6.4 9c7.8-.3 19-2 31-7.7 10.6-5 17-11 25.5-18.8 8.9-8.4 12.3-13.8 14.5-18.9a45 45 0 0 0 2.7-8.8Z" fill="#FFAD4D"/><path d="M69.4.5c3.8-.4 7 2 9.8 5.4l6.5 7.9a7.3 7.3 0 0 1 1.6 5.8c-.5 4.1-2.3 7.8-4.5 11.2A117.7 117.7 0 0 1 36 69.1c-4.5 2-9.1 3.5-14 4.2-3.3.5-6.5.1-9.7-1.2-.3-.1-.5-.4-.7-.6C8.4 67.9 5 64.4 2 60.7.2 58.5 0 55.7.6 53c1-4.7 3.4-8.8 6.2-12.7 6.8-9.3 15.2-17 24.5-23.6A99.2 99.2 0 0 1 57.7 2.6c3.5-1.2 7-2 11.7-2.1ZM9.6 60.3l3.2-.3c4.5-.6 8.8-2.1 13-4a118 118 0 0 0 35.5-25 59.7 59.7 0 0 0 12.2-16.4c.8-1.8 1.4-3.7 1.7-5.6.6-3-1-5.2-4-5.6a18 18 0 0 0-3.8-.2C63 3.5 59 4.7 55 6.4A115 115 0 0 0 12 38c-3.2 3.7-6 7.6-7.8 12.2-.6 1.6-1 3.3-1.2 5-.2 2.5 1 4.1 3.6 4.7l3 .4ZM76 15.5c-7.4 14-19 24-31.5 33 1.8 2.4 3.6 4.6 5.2 6.9.3.4.3 1 .5 1.6-.5-.3-1.1-.4-1.5-.8l-5.4-6c-.2-.2-.7-.4-.9-.3l-3.2 2 6.9 8.9.9-.6c6.7-4 13-8.8 18.9-14.1A78.3 78.3 0 0 0 81.3 28c1-1.7 1.8-3.5 2.6-5L76 15.4Zm-60.7 47 4.4 5.6a9 9 0 0 0 2.6 2.3c.5.3 1.5-.1 2.3-.3l.6-.1A74.8 74.8 0 0 0 44 62l2-1.2-7.5-7.4c-.6-.6-1-.5-1.6-.2-4 2.1-8.2 4.3-12.4 6.1-2.8 1.3-5.8 2-9 3Zm5.4 8.4.2-.4c-.4-.6-.8-1.2-1.4-1.7L13.1 63a.8.8 0 0 0-.4-.3H7l.1.6 5.2 6.3c.3.4 1 .9 1.5 1l7 .3Zm57-60.7-1 3.5.4.8 4 4.8 2.8 3 .5-2.1c.4-1.6 0-2.8-1.1-4-1.3-1.2-2.5-2.6-3.7-4l-1.8-2Z" fill="#2F354D"/><path d="m59.3 27.1 5.4-6.8c1.7-2.3 3.2-4.7 3.2-7.7 0-1.9-.6-2.7-2.4-3.2a10 10 0 0 0-5.5.1c-.3.1-1.1 0-1.1-.2-.1-.4-.2-1.2.1-1.5.8-.5 1.7-1 2.6-1.2 1.8-.4 3.6-.6 5.3.3a5.6 5.6 0 0 1 2.5 7.2 20 20 0 0 1-2.6 4.8l-6.1 7.5-1.2 1c0-.2-.1-.2-.2-.3ZM29.5 47.4l-8 3.5c-2.6 1-5.3 2-8.2 1.2-1.8-.5-2.5-1.3-2.5-3.2 0-1.9.5-3.6 1.4-5.2.2-.4.3-1.2.2-1.2-.5-.2-1.2-.5-1.5-.2-.8.6-1.5 1.3-1.9 2.1-.8 1.7-1.4 3.4-1 5.3a5.7 5.7 0 0 0 6.4 4.2 20 20 0 0 0 5.3-1.3c3-1.3 5.9-2.7 8.7-4.1.5-.2.9-.6 1.3-1l-.2-.1Z" fill="#2F354D"/><path d="m34.1 24.3-1.3.2L18.5 43l-.8 1 1-.3L37 39.3l1-1.4-8.7-2.2L34 24.3Zm.4 14.4-13 3.2 6.7-4.8 6.3 1.6ZM21.2 41l10.2-13.1-3.5 8.3-6.7 4.8Zm11.6-7.2 8.8-6.2-2 7.9-6.8-1.7Zm-.3-.8 3.7-9.2 5.1 2.9-8.8 6.3Zm8.7 1.3 2-7.9 11.4-8-13.4 15.9Zm-3.4-11.6 16.6-5.3L43 25.5l-5.2-2.8Zm21-7.8-1.3.4L36.3 22l-.8.2-.2.7-4.6 11.7-.2.3.3.1 8.6 2.1.5.1.6-.7L57.8 16l1-1.1Z" fill="#2F354D"/></svg>
