<svg width="540" height="265" fill="none" xmlns="http://www.w3.org/2000/svg"><path d="m334.1 259.3 47.8-35.2 3.5.8 18.5-16.7.8-6.7c.8-5.6 1.3-7.3.8-10-.2-1.4-.6-.7-2.4-3.3-.5-12.5.2-28 .4-40.6l3-3c-8 4 .3.4 0 .4-.2 0 .3-6.4 1-17.2 2.8-9 6.9-16.8 8.7-22.1 5-15 5.5-19 7.9-28.7a92.5 92.5 0 0 0 3.5-21.8c.2-7 .3-14.5-3.5-23a32 32 0 0 0-8.3-10.9c-8.6-7.7-19-9.4-26.2-10.3-4.8-.6-7.7-1-12-1-7 .2-15 1.1-19.3 1.8l-5.6 3.4-86.8-3.2c-1.4-2-3.6-4.2-7.4-6.6-3.8-2.4-7-2.5-12.9-3.5-3-.5-8.1-1.5-14.5-1.4-2.3 0-13.4.7-24.5 4-8.4 3.8-15 5.6-25.3 15-2.7 3-6.9 5.8-8.1 7.8 1.3 3.4 3.8 6.3 5 9.7-2.3 5.3-3.7 12.5-6 17.8 13 17.4 24.8 35.1 37.9 52.6-1.9 1.3-3.8 2.7-7 4.7l-10.6 5.6c-7.3 2.1-29 10.3-58.4 17.5-.1 6.3.4 13.5.3 19.7 3.4 1 6.1 1 9.5 2.1 0 10.9 1.6 18.6 1.6 18.6-14.9-6.5 11 3.6 11 3.6a115.2 115.2 0 0 1 50 51.5l127.6 28.6Z" fill="#FFF3E4"/><path d="m381.4 125.4-48.8-50.8c-16.1-3.6-32-4-48-6l-17.2 9.5-29.1-1.7-7.7-10.4-32.6-.8 24.9 36.1c2.3-.5 5.5-1.1 9.4-1.7 11.9-1.8 14.2-.7 15.4 0 1.3.8 4 2.9 5.2 8.6 5.4-2 9.8-2.5 12.8-2.6 5.6-.1 8.9 1 18.9 2.6 5.1.9 9.3 1.4 12 1.7 1.8-1.2 5.2-1.7 9-2.4 3.5-.7 5.7-1.3 8.1-1 11.6 1.4 12.6 1 17.2 1.7 9 1.5 27.6 6.8 50.5 17.2ZM342.9 184c-4.3 2.6-8.4 4.4-12.7 7-7.7-1.5-15.8-3.2-23.6-4.6-.5 15 0 29.1-.5 44-1.2.3-3.2 2.4-4.4 2.6l.9 18.1 32.6 6c1.5-.2 9.5-4.2 17.1-12 1-2 1-10-1.6-15.5-2.1-4.6-4-3.8-5.3-4.3L343 184ZM381.6 225.7l-3.4-63.4c8.3-5.2 16.2-9.1 24.4-14.3-.5 13.2.2 27-.4 40.2 1.2 1.4 2.1 2 3.2 3.5 0 4.9-.6 9.7-.6 14.6-1.6 2.7-3.6 6.7-8 10.4-5.5 4.7-11.8 8-15.2 9ZM162.9 161.6l1.5 21c-6.6-2.6-13-5.5-19.5-8.1l-.9-17.2 18.9 4.3ZM343.7 47.1c-9.7.8-17-1-24-1.7-.8-2.6-1.6-7.4-2.5-10 14.3-8.6 28.2-15.1 42.5-23.7A148 148 0 0 1 390 11c8 1 14 1.8 20.6 6a38.2 38.2 0 0 1 17.1 37.9c-2 27.8-17.9 65.4-20.5 72 3.9-16.2 7-29 8.5-39.3 1.1-7.7 5.7-22.9 3.9-38.1-1-9.2-2.7-15-9-20.2a58 58 0 0 0-8.1-5.6c-17.6-7-40.2 9.6-41.6 10.5-9.5 6.3-9.5 10.3-17.2 13ZM265.7 11.8c.8-2-6.9-7.6-15.4-9.6-3.1-.8-5.5-1.5-10.3-1.6-6.9 0-12.3.6-14.6.9-5.7.8-16.4 1.3-28.4 7.6a80.6 80.6 0 0 0-22.3 17.2c1.1 2.9 1.4 8 2.6 10.8 7.7.6 16.7.3 24.4.9 1.6-3 4.3-8 8.6-12.5 2.3-2.4 10-11.7 25.8-15.1 15.8 1 27 2.1 29.6 1.4Z" fill="#FFD49C"/><path d="M290 43.5c-3.2-3.3-5.8-7.1-9-10.4l-37.5-3.6-15 11.5-4 15.4L236 75.8l30 2.8c6.9-3.5 13.2-6.2 20-9.6-1-1.6-2.4-4.4-3-8a20 20 0 0 1 1.6-11.7c1.8-3.5 3.9-4.9 5.4-5.8Z" fill="#FFD49C"/><path d="M218.6 245.6c-3-4-7.7-10.3-13.1-18-8-11.2-9.1-13.4-13.9-19.4-7.7-10-12-15.6-19-20.7-2.5-2-8-5.6-24.1-11.2-9.5-3.2-21.3-7-37.5-9.8 1 2.2 1 5.3 2.3 9.4 2 7.1 2.2 11.8 2.7 16 .8 6 2.2 16.4 9.1 24.6 8.5 10 21.3 11.9 24.6 12.3 4.9.7 6.5 0 9.3-.3-.7.4-.6 2.5-1 4-.6 2.2 2.2 4.6 3 5.5 5.2 6.1 19.5 5.6 19.5 5.6 11.6.5 23.7 1.2 38 2ZM78.1 219.2A193.8 193.8 0 0 0 61 199.4c-7-6.4-14.7-8.8-19.7-10.4-16-5-30.5-2.6-37.8-.8l4.5 6.4 4.7 6.7s4.1 7.6 11.4 13.1a45.3 45.3 0 0 0 23.6 8.3c12.9 1.6 23.7-1 30.5-3.5ZM442.5 220.5c2.4-1.3 6.5-2.7 11-4 3.5-1.2 12.2-3.8 22.9-2.4 4.9.6 5.7 1.5 13 3.5 8.9 2.3 17.2 2.5 22.3 3-1.1 1.3-3.5 4-5.6 5.8a37.6 37.6 0 0 1-24.5 10.6c-5.8-.4-9-2-16.7-5.6-5.3-2.5-8.6-5.4-15.8-8.4l-6.6-2.5ZM414 211.1c2.6-1 6.7-2.2 11.8-3.2 7-1.2 10.6-.8 26.5-1.6 6.1-.3 9-.4 13-1.6.8-.2 11.8-3.5 11.9-8 0-1.5-.5-1.6 0-2.9.6-1.6 3-1.9 5.7-2.6 0 0 2.5-.6 9-5.2 5.2-3.5 15.6-16.4 23.7-36.9-2 .2-5.7-.3-9.6 0l-10.3.8c-4.5.4-11.7 1.4-19.5 3.6-7.6 2.1-13.5 5.6-18.9 8.6-6.8 3.8-10.4 7.3-15.4 12-6 5.7-7.5 7.5-15.3 19.4-2.8 4.3-7 10.4-12.6 17.6ZM107.2 216.9a120 120 0 0 0-8-13.9 35.8 35.8 0 0 0-11.2-9 54.4 54.4 0 0 0-24.1-7l2 4.3 2 4.5s1.5 4.9 5.4 9.2c4.4 5 9.8 7 13.9 8.6 8 3 15.3 3.5 20 3.3ZM278.6 150.1l-15.9 7.7-30.5-5.7-6-12a30.4 30.4 0 0 1 21-13.2c13-1.2 26.4 8.2 31.4 23.2Z" fill="#E7E4FF"/><path d="M294.2 110.3c-1.4-1.8-8.2-2-21.6-2.4-11.2-.3-14.2 0-17.6 1.6-1 .4-10.8 5-10.7 11.7 0 2.4 1.2 4.6 4 7.5 4.9 5 15 15.6 27.1 13.2 15.5-3 24-25 18.8-31.6Z" fill="#E7E4FF"/><path d="M251.2 104.4c-.2-1.2-.8-1.8-2.6-3.5-2-1.8-7-1.8-8.5-1.7a77.8 77.8 0 0 0-24.5 5.6c-10.9 7.3-13.7 7.8-20.5 13-3.6 4.1-8.8 9-10 11.8 1.7 1.2 4.5 2.9 8.3 4 7 2.2 11 .8 18.5 2 2.8.5 7.1 1.6 12.1 4a94 94 0 0 0 32.3-23.6l-5.1-11.6Z" fill="#D4C5FF"/><path d="M345.5 126c2.5 5 2.9 9.5 3 12.4 2 .4 4.4 2.2 6.4 2.6 8-3.9 16.7-9 24.8-13-.9-2.6-2.5-6.4-5.6-10.3-4.4-5.6-10.2-8.4-21.7-13.6-6.7-3-11.6-4.6-21.4-7.6-3-1-9.2-2.8-14.6-.4-1.4.6-2.6 1.5-2.8 1.6-3.6 2.6-3.9 7-4.5 8.8a41 41 0 0 1 17.2 2.4 35.6 35.6 0 0 1 19.2 17Z" fill="#E7E4FF"/><path d="M449 254v-15.5c-1.5-1.3-2.7-2.6-5.7-4.3a46 46 0 0 0-18.5-5.9c-9.6-1-11-.9-17.2-.4-1.4.1-14.9 1.5-22.3 4.3-2.2.9-5 2.5-7.3 5.2-1.3 1.6-1.4 3.6-1.8 4.8l1.2 10.7c1.7 1.6 4.3 3.8 7.9 5.9 14.5 8.3 34.7 4.8 45.7 2.8 5.8-1.2 9.5-2.6 18-7.6ZM348 144.4c.8-5.2-1-10.3-1.6-13-.7-3.3-2.5-11.9-9.5-17a26.5 26.5 0 0 0-9.1-3.6c-6.2-1.7-12.8-3.6-21-2.8a35 35 0 0 0-20.9 8.9c-1.3 1.1-12.8 11.6-9.8 24 .7 3.3 1 5.8 2.2 7.5l4-1 1.2-.3c1.5-.3 13.3 1 44.3 8 6.4-4 13.8-6.5 20.3-10.7ZM537.5 207c0-2.8-.5-6.9-.5-9.6-.8-.8-.7-.9-2.3-1.7-3.2-1.8-6-2.7-10-3.2-5-.6-5.8-.5-9.1-.2-.7 0-8 .8-12 2.3a9.3 9.3 0 0 0-3.8 2.8c-.7.8-.8 1.9-1 2.5.2 2-.5 4.2-.3 6.1 1 .9 3.2 1.7 5.1 2.8 7.8 4.5 18.6 2.6 24.5 1.5 3.1-.6 4.4-1 9.4-3.3ZM128.8 239v-8.4a24.6 24.6 0 0 0-13.5-5.7c-5.2-.5-5.9-.5-9.2-.2-.8 0-8 .8-12 2.3a9.3 9.3 0 0 0-3.8 2.8c-.7.8-.8 2-1 2.5l.6 5.8c1 .8 2.3 2 4.2 3.1 7.8 4.5 18.6 2.6 24.5 1.5 3.1-.6 5.2-1.5 10.2-3.8Z" fill="#D4C5FF"/><path fill-rule="evenodd" clip-rule="evenodd" d="M414.8 234.1h-.3l1-.2 2.3-.1 2-.2 1.7-.1 1.7-.1 3.3-.3c1 0 2 .2 2.6.5.3.2.5.4.4.5 0 .2-.2.4-.5.5l-1 .2-1 .1h-1.3l-10.8-.8h-.1Zm-14.5 1a1058 1058 0 0 0-6.9.7c-.5.2-.7.4-.8.7V237.1c.3.5.9.8 2 1l5 1.3a1928.7 1928.7 0 0 1 5.2 1h-.4l1.1.4 1.8.4c.3 0 .4.1.4.2v.4a18 18 0 0 0-.2 1v.3c.4.4 1.4.8 2.6.7 1 0 1.8-.2 1.9-.6v-.4l.1-.3v-.2l.3.1 2.4.6 2.4.5 4 1 2.8.6 1.2.3c1.1.1 2.3 0 2.6-.4v-.2c.1-.4-.4-.8-1.3-1l-1-.2-2.9-.7-3.4-.8a2910 2910 0 0 1-3.8-.9h-.1a199.1 199.1 0 0 1-2.9-.8v-.2l.1-.1.1-1c0-.4-.6-.8-1.5-1-1-.2-2 0-2.6.2-.3.1-.4.3-.4.5v.2l-.1.4h-.2l-5.8-1.3-3.1-.7h-.2l-1.3-.4h.2l3.6-.3 7.1-.5 3-.2H411.7l4.4-.3 6.5-.5 3.5-.2H425.7l-10.8-.9h-.7l-2 .1-1.9.2-6.3.4h-.2l-3.5.3Zm10.7.9h.1-.1Zm-5.2-.4a6173.3 6173.3 0 0 0 0 0l-5.2-.4c1.7 0 3.5.2 5.2.4Zm-5.2-.5h-.1Z" fill="#2F354D"/><path d="M285.6 139.3c-1.8-.3-1.5-1.7-1.4-2.6.4-3.7 1.5-7.2 3.6-10.3 2.6-4 6-7 10.3-9.2a30 30 0 0 0-12.5 22ZM355.6 125.2c2.5.4 4.6.9 6.7 1 1.8.1 3.6 0 5.4-.4 1.8-.4 2.4-1.9 1.7-3.6-.6-1.4-1.5-2.7-2.4-4.1l.7-.4c1.3.1 4.2 4 4 5.3-.2 2-1.5 3.5-3.7 4.1-2.4.6-9.7-.4-12.4-2Z" fill="#2F354D"/><path d="m235.7 0 7.7.8c8.3.4 15.5 3.6 21.8 9a6 6 0 0 0 3.2 1.4l81.4 3.5c1.4 0 3.2-.3 4.4-1.1 3.4-2.4 7.3-2.5 11.2-2.8 5.9-.4 10.7-1 16.7-.7 8.3.5 16.4 1 25.3 5.5a32.7 32.7 0 0 1 19 24.3c3 14.5.4 27.2-1.1 33.6a375.2 375.2 0 0 1-17.6 54.9c.6 9-.2 15.5-1.2 16.6a16.5 16.5 0 0 1-1.7 1.6c-1.3.6-1.6 1.4-1.6 2.9l-.3 16.2c-.1 6.7-.3 13.5-.1 20.2 0 1.7 1.2 3.5 2.2 5 1 1.2.8 2.4.7 3.8-.4 3.3-1.1 6.6-1 9.8.3 2.9-1 4.9-2.5 6.8a63 63 0 0 1-16.8 13.8c-1.3.8-3 .7-4.5 1.1l-1.6.8c-.6.3-19.2 14.2-44.4 33l-124.3-27.4-.5-.1-1 .2a83.7 83.7 0 0 0 13.5 15c-4.1-1-10.4-2.3-18-2.8-9-.5-12 .2-23.5 0-7-.2-13.7-1.5-19.6-5.5-2.2-1.5-4-3.4-4.4-6-.2-1.3 0-2.5 0-4-2.3 0-4.6.2-7 0a38.4 38.4 0 0 1-34-34c-.9-8.3-.9-11.7-3-19.7a65.4 65.4 0 0 0-3.5-9.8c4.3.5 7.8 1.1 10.2 1.6 6.8 1.3 12.7 3.5 22.7 6.3l1.9.6-1.5-16.5-8.6-1.7v-1.6l70 12.6a18 18 0 0 1 2.8 2c2.4 2 4.3 4.7 7.4 9.1 1.4 2 3 2.7 5.2 3l27.6 4.9c.7.1 1.7-.4 2.3-.9l6.5-5.7 1.2-1c2.2-1.7 3.2-1.6 5.4-1.2 20.7 3.9 41.5 7.6 62.2 11.4l4.2.6-.7-18.6-19.7-3.8-44.4-8.2c-1.3-.3-2 .1-2.7 1-2.5 2.9-5.2 5.5-7.8 8.2-.4.4-1.2.4-1.8.3l-34-5.9a7.8 7.8 0 0 1-5-3c-3.2-3.8-6.7-7.4-10-11-.4-.5-1.3-.7-2-.8l-53.8-9.4-12.6-2.3-.3 20.3a123.6 123.6 0 0 1-1.2-20.9l22.7-7.1c12-3.7 24-7.5 36.1-11 3.7-1.1 6.3-3.6 9.3-5.4 2.7-1.5 5.3-3 8.1-4.8-1.7-2.3-6-8-7.6-10.4L171.2 55l5.3-17.1-4-10.7c4-4.3 17.4-18 37-23.8A83.1 83.1 0 0 1 235.8.1Zm-.4 123a73.9 73.9 0 0 1-15.6 8.1c1 3.3 2.1 6.2 6 7a67.3 67.3 0 0 0 26.8-18.8c-2-4.6-3.6-8.4-3.1-8.7.6-.3 4.5 6.3 5.1 6 .3-.2-.3-2.3-3.2-8.9a60 60 0 0 1-4.7 5.7c-.9 1-4.9 5.2-11.3 9.6Zm24-10.8c-.8.5-2 1-2.3 1.7-1 2.5-1.8 5.2-2.8 8a66.8 66.8 0 0 0 22.3 8.3 35 35 0 0 1 16.5-19.3 80.4 80.4 0 0 0-37.7-1.3l1.5 2.9 2.5-.3Zm-94.9 70.5c-.1-.5-.4-.9-.4-1.3l-1.2-17.7v-2.3l-18-3.2v1.9c.3 4.2.8 8.5 1 12.8 0 1.6.7 2.4 2.2 2.9 1.6.5 3.2 1.3 4.7 1.9l11.8 4.9 1.4 1a71.2 71.2 0 0 1 24.6 20l1.5 2.1c.7.6 1.4 1.3 2.2 1.4 4.8 1 9.5 1.8 14.2 3 4.7 1 9.4 1.7 14 2.7 16.5 3.5 33 6.7 49.4 10.1l12.7 2.5-1.1-42.7-9.4-1.7-1.4 20.7-1.5-21.2c-3.2-.6-6.5-1.3-9.8-1.8-.6-.1-1.4.1-2 .5-3 2.5-6 5-9.3 7.5-.7.6-2 .9-3 .8-1.6 0-3.2-.5-5.4-.8l-1.3 28.9-.7-28.2c0-.1 0-.6-.3-1l-1-.4-14.4-2.5-3.4-.5-.3 29.4-1.8-29.9c-2.3-.3-4-.8-5.2-3.2-1.7-3.3-4.8-5.8-7-8.8-1.9-2.5-4.5-2.3-7-2.7l-1.5 29.6-2-30.1a1157.1 1157.1 0 0 0-31.7-5.7l.9 18.6c0 .8-.3 1.7-.5 2.5Zm33.3-117.9.7 1.3 24.8 34c.7 1 1.3 1 2.3.6a54.6 54.6 0 0 1 17.2-2.7c4.4 0 7.9 1.7 10 5.8.3.8.8 1.5 1 2.3.4 1.4 1.2 1.5 2.4 1.2 1.8-.4 3.6-.8 5.4-1 9.6-1.1 19.2-.3 28.5 2 4 .9 7.5 1 11.2-.5 2.1-.9 5-.6 6.5-2 1.6-1.5 1.7-4.5 2.8-6.7.8-1.4 1.8-3.2 3.2-3.7a23 23 0 0 1 8.3-1.7c15.4.2 30.8 8.7 30.8 8.7a167 167 0 0 1 11.2 5.8l-31.9-33.8h-.2c-32.7-5.5-45.7-5-50.3-2.5-.5.3-3.5 1-7 3.3-3.3 2-6.7 3.6-11.1 3-8.3-1-16.7-1-25-1.6-.8 0-2-.2-2.3-.7-2.1-2.5-4-5.2-6-7.8-.6-.6-1.5-1.3-2.3-1.4l-16.4-1-13.8-.9Zm-74 126.6v.3L121 193c-3 1.5-3 1.5-2.4 4.7a37.2 37.2 0 0 0 25.8 29.2c4.5 1.6 9.3 2 14.1 1.2.5 0 1 .2 1.6.4a4.8 4.8 0 0 0-.7 5.5c1.3 2.4 3.5 3.7 5.8 4.9 5.2 2.8 11 3.7 16.9 3.8 11 .3 22.2.2 33.2.3l-5.2-5.8a98 98 0 0 0-28.4-22.8 55 55 0 0 0-36.6-5.3c-4.5.9-9 2.1-12.7 3 5.7-2.7 16.9-6 29-4.9a70 70 0 0 1 43.8 22c0-.3 0-.6-.2-.8-4.7-6.9-9.2-13.9-14-20.8a34.9 34.9 0 0 0-13.6-13 69.6 69.6 0 0 0-41.5-6.1l-6.9 1.2a69.1 69.1 0 0 1 46.5 2.1 186.9 186.9 0 0 0-63.7-25c4.8 8.6 5.2 17.7 6.2 26.7l5.6-2.2ZM203 37.8c.5 0 .6.2.8.2l24.7 1.4c.8 0 1.9 0 2.5-.4 3.4-2.5 6.8-5 10-7.9 1.4-1.3 2.7-1.8 4.5-1.7l28.8 2.4c2.2.2 4.4.6 6.6 1v.3h-8.1l5 8.9c.4.5.6 1.3.4 2-1 4.2-1.8 8.5-3 12.7-.6 1.7-1.9 3.4-3.2 4.6-2 2-4.4 3.6-6.5 5.4-.5.4-1.2 1.2-1 1.7.6 3.2 1 6.6 3 9.4l17.2-9.4c-2.7-4.3-3-8.8-2-13.5.9-4.5 3-8.5 5.5-12.8l-7.3-9.1-3.1-.8 4.3.4c4.9 5.8 6.7 8.2 7.2 9.1 0 .2.4 1 1.1 1.4.4.2.8.3 1.3.3l22.1 1.4 5.2.3-2.3-7c-.5-1.6-.3-2.7 1.2-3.6 6-3.6 11.8-7.3 17.8-10.8 4.2-2.5 8.6-4.8 13-7.1l-.1-.5-115.9-4.9c-.2 0-1 .4-1 .2 1-.2 2.5-1.7 3.3-1.7 7.9.3 15.9 1 23.7 1.3h5.6a32.5 32.5 0 0 0-12-7.2c-9.5-3.2-17.7-.7-23.4 1 0 0-17 5.2-27.3 20.8-1 1.4-1.4 2.6-1.3 3.2.1 2.2.8 4.4 1.4 7.1 2-3.7 5.3-8.7 10.5-13.5a55.7 55.7 0 0 1 22-11.7c-4.5 1.5-13.1 5-20.1 11.8a53.4 53.4 0 0 0-11 15.3Zm75.5 110.1c1.7-.5 3.1-1.3 4.6-1.3 2.5.1 5 .8 7.5 1.2 11.9 2 23.8 4 35.7 5.8 1.2.2 2.8 0 3.9-.6l15.1-8c.8-.4 1.4-1.4 1.6-2.2a27.1 27.1 0 0 0-6.7-22 37 37 0 0 0-39.9-10.7c-12.6 4.2-21 12.5-23 26.3-.7 4-.1 8 1.2 11.5ZM405.7 129l.1-.6-.6-1-33.7-44a5611 5611 0 0 0-25.8-33.2 4.6 4.6 0 0 0-2.9-1.6l-51.6-3.9c-2.4-.1-3.5.6-4.5 2.5-2.2 4-3.7 8.3-3.3 13.1l55.6 3.8c.8 1.4 1.2 2.4 1.8 3.1l4.3 5.1 46.1 54.4c.5.5 1 1.2 1.6 1.2 4.3.5 8.6.8 12.9 1.1Zm-211.5 79.5.3 1 12.6 20c.5.7 1.6 1.2 2.4 1.4l19.7 4.3 63.7 14c3 .8 6.1 1.4 9.6 2.2l-1-11.3c-.5-3.2-1-6.2.7-9.4l-108-22.2Zm151.3-161L373 83.1l35.7-54.7a23.5 23.5 0 0 0-22.3-5.6c-9.1 2-17 6.4-24.7 11.6-5.7 3.9-11.2 8-16.2 13.1Zm-59.2 135.7-.2.7-1.2 40.3c0 1.1.4 1.5 1.4 1.7l13.9 2.8 5.4 1.2V210l-.7-23.3 1.6.4v43l25.9 5.5-3-44.3-43.1-8Zm57.6.7 1.6 41.2 4.7 2 28.8-19.8-.4-9c-.8-18-1.4-27.2-1.5-29.5l-.3-5-32.9 20.1Zm58.6-53.6-19.5-1.6-5.8 1.4-49 25.7c-3.4-.8-35.4-8.4-44.6-7.6l-3.3.5-11.7 6c-1.5.8-3 1.4-4.9 2.2l1.2.5c20.6 3.8 41.2 7.6 61.8 11.2a6 6 0 0 0 3.6-.6l64.7-33.8 7.5-4ZM244.2 31.4l-2.8 1.4c-3.2 1.7-5.8 4-9.2 6.7a7 7 0 0 0-2.1 3c-1.2 3-2 6.2-3 9.3-1.3 4-1.7 7.7 1.1 11.2.3.4.5 1 .9 1.3.6.5 1.3 1 2 1.1l30.3 1.9c2.2.1 3.7-.7 5.2-2.2l6.9-6.9.4-.8 3-13.8c.1-1-.4-1.6-.5-1.8a16.3 16.3 0 0 0-7.3-8.8l-24.9-1.6Zm90.3 225.8c5.7-4 11.4-8.2 17-12.3a35 35 0 0 0-.1-10c-.3-1.8-1.3-3.2-1.8-4.2a9.4 9.4 0 0 0-2.5-3.2 8.1 8.1 0 0 0-3.5-1.6l-1.6-40.8-11.2 6.6 3 44.5 11.7-6.7-11.4 7.9v15.8l-2-15.8c-12.9-3-22.5-5-25-5.5-.7 0-2.2-.3-3.1.5a3 3 0 0 0-.9 1.8 113 113 0 0 0 1 17l30.4 6Zm83.1-214.3-1.9 2.8c-10.6 16.3-21.2 32.5-32 48.7-.7 1.1-.6 1.8.2 2.9l14.5 19 7.6 9.6.4-.8 1.4-6.2c5-19.6 9.8-39.3 11.3-59.6.4-5.4 0-10.8-1.5-16.4Zm-11.7 87.5-1.6.7-51 26.4-20.5 10.8c-1.7.9-2.7 2-2.6 4.2l-.2 14c0 .6.3 1.2.4 1.8.6-.1 1.2-.2 1.7-.5l1.6-.8 70.6-41.4c.6-.3 1.5-1 1.5-1.5.1-4.5 0-9 0-13.7ZM203.3 134c3.2-1 6.9-1.6 10.3-2.8a88 88 0 0 0 28.2-15.4 28 28 0 0 0 7.4-8.8c1.3-2.7.6-4.8-2.2-5.9-.9-.3-1.9-.6-2.8-.7-6.3-.6-12.3.5-18.2 2.4-8 2.7-13.8 5.4-15 6 0 0-16.4 8-23.3 19-.3.5-1.2 1.8-.7 2.8.4.7 1.3 1 3 1.3l13.3 2Zm141.8-87.6c4.1-3.3 7.8-6.6 11.8-9.5A80.4 80.4 0 0 1 386 22c13.2-3 23.8 1.6 30.3 13.4 4 7.4 5 15.4 4.4 23.6-.8 11.5-2 19.7-7.4 43.3l-5 21.4a308.7 308.7 0 0 0 16.1-51.3c1.3-6.1 3.7-19 .6-32.9-2.2-9.5-6.7-14.1-8.3-15.7-5.5-5.9-11.8-8-14.7-9-2.8-1-7.9-2.6-14.2-2-4.9.4-6 1.8-27 12.8l-7.5 4.2c-3.5 2-6.7 4.8-10 7.3-.3.2-.7 1-.6 1.4l2.5 7.8Zm-149.7 18 .2-.7c10.8 0 21.6 1.3 32.6 1.6-1.1-2-2-4-3.2-6a3 3 0 0 0-2-1.3l-43.8-2.8-6.6-.4 2.4 3.5 33.5 45.2c2 2.8 2 2.9 5.2 1.6l8.7-3.5-27-37.1ZM367 130.5c2.2-.4 4.5-.7 6.7-1.3 1.6-.5 2.7-1.8 2.1-3.7a16 16 0 0 0-1.6-4.2c-2.6-4-6.3-6.9-10.2-9.6a89.1 89.1 0 0 0-34.5-15 28 28 0 0 0-13-.3c-2.7.7-3.8 2-3.6 4 .1 2.6 2.7 6 4.7 6.3a36.9 36.9 0 0 1 27.6 17.7c.3.5.8 1.1 1.3 1.3a71.4 71.4 0 0 0 20.5 4.8ZM283.4 62a24.6 24.6 0 0 0 2.9 6.4l47 4c16.5 18.5 33 37 49.7 55.4l7.4.5L382 118l-43.3-51a4.2 4.2 0 0 0-2.7-1.3l-42.3-3.2c-3.3-.3-6.6-.4-10.3-.6Zm118.4 86.6-13 8c-1.3.7-1.8 1.4-1.7 2.9l.6 32.6c0 2.2.5 4 1.7 5.7 1 1.5 1.9 2 3.4 1.1l8.4-4.4a24.7 24.7 0 0 1-9.8 6.6v18.2c4.4-3.1 8.4-6.4 11.5-10.6.3-.4.6-1 .6-1.6.3-4.2.6-8.4.7-12.6 0-.8-.4-1.6-.7-2.3-.7-1.5-1.9-3-1.9-4.5l.2-23.1v-16Zm-262.6-13.7v.5l1.7.4 54.4 9.5c3.2.5 6.3 1.5 9.5-.4 1.5-1 3.6-1.1 5.4-1.8l12.7-4.5-46.6-7.4.1-1 8.4.7c.4-5.1 4-8.4 6.8-12.2l-52.4 16.2Zm89.2-94-52-3 2-.5-5.4 16 1.8.2 29.6 1.9 18.3 1c1 .1 2.3.4 2.7-1.3l3-14.2Zm181.8-11-10.4 15.4-24.8 38c-.3.6-.6 1.6-.4 2l7.3 9.3c.5-.6.8-1 1-1.5l23-36L416 42c.4-.6.7-1.6.5-2.2a27 27 0 0 0-6.3-10ZM260.8 158.3l-1.3-.4-24-4.3c-1.2-.3-2.8-.7-3.5-1.6-2.6-3.6-4.9-7.5-7.4-11.2-.3-.4-1.2-.8-1.6-.7l-18.5 6.5 4 5 7 8a4 4 0 0 0 2 1.2l34.2 6c.5 0 1.3 0 1.6-.3l7.5-8.2ZM385.6 11.2l-26.3.8a743.4 743.4 0 0 0-39.8 23l23.4.8a257 257 0 0 1 42.7-24.6ZM246 129l-8.6 5.6c-2.4 1.5-2.4 1.5-1.4 4.1l-.4.7c-.7-1-1.3-2-2-2.8l-4.8 2.5c2.3 1.9 4.1 3.7 6.3 5a64.7 64.7 0 0 0 30.3 7.7c4.4.3 8.3-.7 11.4-2.8-.4-1.5-1-3-1.2-4.4-.2-1-.6-1.3-1.6-1.6-5.2-1.6-10.5-3-15.5-5-4.8-1.8-9.3-4.4-12.5-9Zm135.8 95.6.6.6c2.2-1.3 4.4-2.5 6.4-4 .7-.5 1.3-1.7 1.3-2.5.1-4.5.2-9 0-13.5-.1-2.7-.1-5.5-2.3-7.6-1.3-1.2-1-2.7-1-4.2l-1-33.6-.2-1.4c-2.4 1.4-4.5 2.6-6.6 4-.4.2-.7.9-.7 1.3l.8 15.8 2 34.3c.1 3.6.4 7.2.7 10.8Zm-2.7-15-28.4 19.2c4 4.3 1.8 9.6 2.5 14.7.8-.5 1.5-.8 2-1.3l24.5-16.9c.5-.3 1-1.4 1-2-.2-2.6-.6-5.2-.9-7.7l-.7-6ZM175.7 26l23.6.7a56.4 56.4 0 0 1 37.4-24.9 75.6 75.6 0 0 0-61 24.2Zm89.5 50.7c-.6-2-1.3-3.8-1.7-5.7-.3-1.7-1.2-2.2-2.8-2.3l-18.9-1-10.3-.7-.4.5c2 2.5 3.8 5 5.8 7.3.3.4 1 .5 1.4.5l25.8 1.6 1.1-.2Zm-90.5-49.2 3 8.4c.2.3.9.6 1.4.7l8.6.5 13.3.8-1-3.6c-.5-1.6-.5-3.9-1.6-4.7-1.3-1-3.4-.8-5.2-1l-18.5-1.1Zm142.6 9.1 2.9 8c.2.4 1 .7 1.6.7l9.4.7 12.4.8-1-3.4c-.5-1.6-.6-3.9-1.7-4.8-1.2-1-3.4-.7-5.2-.8-6-.5-11.9-.8-18.4-1.2ZM269.8 140l-.1-8c0-.6-.8-1.4-1.4-1.6-3-1.2-6-2.1-9-3.4-2.4-1-4.6-2.2-7.1-3.4l-.9 6.2c-.1 1.4.4 2.5 1.7 3.2 2.8 1.4 5.6 3 8.4 4.2 2.6 1 5.2 1.7 8.4 2.8Zm86-9.1-8.5-2.5 2.1 10c6.1 1.8 6.1 1.9 13.6-2.5 1-.6 1.4-2.1 2.3-3.5l-7.4-1-3.4 7.3-.8-.4 2-7.4ZM244 153.7l.4-.5c-.5-1.1-.9-2.9-1.8-3.2a39.2 39.2 0 0 1-15-9.2c0 1 0 2 .4 2.7l5.3 7.6c.2.3.6.7 1 .8l9.7 1.8Zm31.7-21.7-1.6-.2-3.2-.6-1.2 8.7 5.2 1.1.8-9Zm-21 21-9.6-2.2c.5 1.4.6 3 1.1 3.1 2.8.8 5.6 1.2 8.5 1.7v-2.7Zm11.7.9-9.8-.7-.2 2.5c3.7 1.1 6.2.6 10-1.8Zm-51.3-21.2c.7 3.2 1.8 4 5 3.5-1.5-4.4-1.9-4.7-5-3.5Zm35.2-2h.6l-.4-5.8-3 2.7 2.8 3.2Zm-41 4.1 5.4.9c-.8-2.7-1.4-2.8-5.4-.9Zm103.8-28.6-2.1-3.7-1.5 3.7h3.6Zm35.8 37 3.5-2-3.3-.8-.2 2.8ZM516.3 148.7l-2.9 6c-2.8 5.7-5.4 11.4-8.4 17a47 47 0 0 1-20.7 19.8c-2 1-4.3 1.5-6.5 2.3.6 4.5-2 7.2-5.6 9.1-5 2.7-10.4 3.9-16 4.3-3.8.2-18.4.9-23.7 1.3-5.9.5-14.3 2-24.4 6a50 50 0 0 0 14.3-15.5c2-3.6 5.8-11.5 9.4-16.3 2.5-3.2 5.2-6.1 5.2-6.1l2.1-2.1c17.6-17.3 46-23.6 46-23.6 7.2-1.6 18-3.2 31.2-2.2Zm-101 61.4c5.7-1 11.6-2.5 17.6-3.2 9-1 18-1.3 26.9-2 4.6-.5 9-1.8 13-4.4 2-1.3 3.3-3.2 3-5.6-.2-1.6.5-1.9 1.7-2.3 3.2-1.1 6.4-2 9.2-3.8a49.4 49.4 0 0 0 17.7-19.5c3.5-6.7 6.9-13.5 10.3-20.4l-10.8.9c-6.4.6-12.8 1.2-19.1 2.1a76.2 76.2 0 0 0-31.6 13.2l-6 4.2c6.6-1.9 13-4.1 19.5-5.4 6.6-1.2 13.3-1.8 20-2.2 9.3-.4 18 .8 19.8 2.5l-2.3-.3c-3.5-.5-7.1-1.2-10.7-1.4-12.2-.5-24 1.9-35.8 4.7-16 3.7-25 14.8-32.1 29.1a78 78 0 0 1 26.2-13.4 67.9 67.9 0 0 1 28.5-2.3h-4.2c-4.2.2-8.5 0-12.7.6a80.3 80.3 0 0 0-36.6 15.5c-1.1.9-2.5 1.6-3.4 2.7-2.9 3.6-5.6 7.3-8.2 10.7ZM437.6 222a70.4 70.4 0 0 1 39-8.3c5.3.6 10.6 2.1 16 3.2l16.1 3 3.3.6-.8 1.9a39.3 39.3 0 0 1-22.8 15c-8 1.7-15.5.4-22.5-3.5l-15.8-9c-1.3-.6-3.7-2.1-7.3-2.7-2.1-.4-4-.3-5.2-.2Zm72.4-.8-.8-.1c-6.2.3-12.3-1-18.3-2.4-4.8-1.1-9.6-2.4-14.5-3.1-6.8-1-13.6 0-20.3 1.2-4.3.8-8.4 2.2-12.7 3.3 2.2 1.3 4.3 2 6.3 3l13.5 7.2c4.9 2.7 9.8 5.3 15.5 5.8 13.3 1.2 23.1-4.9 31.3-15ZM79.8 219.3c-7 2.6-16.8 5-28.6 4.3-8.9-.5-18.4-1.9-27.1-8.2-4.6-3.3-7.4-8.1-10.7-12.5-3-4-6-7.7-9-11.4-1.2-1.4-2.8-2.4-4.4-3.7 8.5-2 17-2.7 25.3-2 5.8.5 11.6.7 17.1 2.1 3.2.8 7.8 2.3 13 5.6 5 3 8.2 6.6 14.5 13.7 2.6 2.9 6 7 9.9 12.1Zm-76-31.6 4.3 5.4c3.3 4.5 6.5 9 10 13.4 2.4 3 5 6 8 8.4 7.8 6.1 17.3 7.2 26.8 8 8.6.6 16.7-2 24.6-3.6C74 215 70.3 211 67 206.6a48.2 48.2 0 0 0-28-17.8c-9-2.3-18-2.2-27.2-2-3 .2-6 .7-8 1Z" fill="#2F354D"/><path d="M267.5 124.5c-2.3-1.2-4.3-2-6-3.2-1.5-1-3-2.2-4-3.6-1.3-1.4-.9-2.9.7-3.8 1.3-.8 2.8-1.3 4.3-2 0-.1-.1-.5-.3-.7-1.1-.7-5.7.7-6.4 1.9-1 1.7-.9 3.7.6 5.5 1.5 2 8 5.5 11.1 6ZM232.9 116.7c2.1-1.4 4-2.5 5.6-3.9 1.4-1.1 2.6-2.5 3.7-4 1-1.5.4-3-1.2-3.7-1.4-.6-3-1-4.5-1.5 0-.1 0-.5.2-.7 1-.8 5.8 0 6.6 1.1 1.2 1.6 1.2 3.6 0 5.5a25.3 25.3 0 0 1-10.4 7.2Z" fill="#2F354D"/><path d="M250.7 56.4c5.4 0 9.7-3.3 9.7-7.4 0-4-4.3-7.3-9.7-7.3-5.3 0-9.6 3.3-9.6 7.3s4.3 7.4 9.6 7.4Z" stroke="#2F354D" stroke-width="3" stroke-miterlimit="10"/><path d="M449.2 237.8c.3.7.6 1.6.8 7.1a32 32 0 0 1-.4 9.5c-1 2.3-3.3 4.1-9.9 6.4-9 3-16.7 3.6-19.5 3.8 0 0-12.4 1.6-27.7-2-3.8-.8-7.5-2-11-4-2.3-1.3-4.2-3-5.5-5.4-.2-.2-.2-.5-.2-.8-.4-3.8-.8-7.7-1-11.5-.1-2.3 1-4.2 2.7-5.6 3-2.6 6.5-4.1 10.2-5.2a84.6 84.6 0 0 1 27-3.5c8 .2 16 1.1 23.6 3.6.7.3 2.5.8 4.7 2 1.8 1 4.7 2.6 6.2 5.6Zm-69.3 6.5 2.1 1.3a38 38 0 0 0 10.3 3.7c11.5 2.6 23 2.8 34.7 1 5.4-.8 10.8-2 15.7-4.7 1.3-.8 2.6-1.7 3.8-2.8 1.8-1.6 1.8-3.8 0-5.6a29.6 29.6 0 0 0-11.7-5.8 91.5 91.5 0 0 0-42.7-.3c-3.8.8-7.5 2-10.8 4.1a15 15 0 0 0-3.2 2.6c-1.4 1.6-1.3 3.2 0 4.8l1.8 1.7Zm64 3.2a79.2 79.2 0 0 1-36 6v7c0 .4-.2.8-.4 1.2-.2-.4-.5-.8-.5-1.2l-.7-6.4c0-.3-.2-.7-.4-.7l-3-.2.2 9 .8.1c6.3.6 12.6.6 18.9 0 6.4-.7 12.6-1.8 18.5-4.3l4-2-1.4-8.5Zm-61.3 1v5.8c.1.9.2 1.9.6 2.7.2.4 1 .6 1.6.9l.5.2c5 2.1 10.3 3.2 15.6 3.9.6 0 1.1 0 2 .2-.5-3-1-5.7-1.3-8.5-.1-.6-.4-.7-1-.8-3.6-.6-7.2-1.2-10.8-2-2.4-.6-4.7-1.6-7.2-2.4Zm-.7 8 .4-.1v-1.8l-1.5-6.9c0-.1 0-.3-.2-.4l-3.5-2.7-.2.5.3 6.5c0 .5.2 1 .5 1.3l4.2 3.7Zm65.7-11.6-2.4 1.7-.1.7.2 5 .4 3.3 1.3-1.1a3 3 0 0 0 1.2-3c-.3-1.5-.3-3-.5-4.4l-.1-2.2Z" fill="#2F354D"/><path d="M427.6 246.8c2.3-.6 4.5-1 6.7-1.8 2.2-.6 4.4-1.4 5.8-3.4.9-1.2.9-2 0-3.2a8 8 0 0 0-3.6-2.6c-.3 0-.7-.5-.7-.6.2-.4.6-1 .8-1 .8 0 1.6.2 2.3.5 1.3.6 2.6 1.4 3.3 2.8.9 2 .2 4.5-1.9 5.8-1.2.8-2.6 1.5-4 1.9l-7.5 1.8h-1.2v-.2ZM398.8 245.5 392 244c-2.2-.6-4.3-1.3-5.9-3.2-.9-1.2-1-2 0-3.2a8 8 0 0 1 3.4-2.8c.3 0 .7-.6.7-.6-.2-.4-.6-1-.9-1-.7.1-1.6.2-2.2.6-1.3.7-2.6 1.4-3.2 2.9a4.6 4.6 0 0 0 2 5.7c1.3.8 2.7 1.4 4.1 1.8 2.5.6 5 1 7.6 1.5h1.2v-.2ZM537.5 197.6c.2.4.4.9.5 3.8 0 3 0 4.4-.3 5-.5 1.3-1.7 2.3-5.2 3.5-4.9 1.6-9 2-10.5 2 0 0-6.6.9-14.8-1-2-.5-4-1.1-5.8-2.2a7.7 7.7 0 0 1-3-2.9l-.1-.4c-.2-2-.5-4.1-.6-6.2 0-1.2.6-2.2 1.5-3 1.6-1.4 3.5-2.2 5.4-2.8 4.7-1.4 9.6-1.9 14.5-1.8 4.3 0 8.5.6 12.6 2 .4 0 1.4.3 2.5 1 1 .5 2.6 1.4 3.3 3Zm-37 3.5 1.1.7c1.8 1 3.6 1.5 5.5 2a50.3 50.3 0 0 0 18.6.5c2.9-.5 5.7-1.1 8.4-2.6.7-.3 1.4-.9 2-1.4 1-1 1-2 0-3-.3-.4-.8-.7-1.2-1-1.5-1-3.3-1.7-5-2.1a49 49 0 0 0-22.9-.2c-2 .4-4 1.1-5.8 2.2a8 8 0 0 0-1.7 1.4c-.7.8-.7 1.7 0 2.6l1 .9Zm34.2 1.7a42.4 42.4 0 0 1-19.2 3.2v3.7l-.2.7c-.1-.2-.3-.4-.3-.7l-.4-3.4-.2-.4h-1.6v4.7h.5c3.4.4 6.8.4 10.1 0 3.4-.3 6.8-.9 10-2.2l2-1.1-.7-4.5Zm-32.8.5v3c0 .6.1 1.1.3 1.5.2.3.6.4.9.5l.3.2c2.6 1 5.5 1.7 8.3 2l1 .1-.6-4.5c0-.3-.2-.4-.5-.4l-5.8-1.1c-1.3-.3-2.6-.8-3.9-1.3Zm-.3 4.3h.2v-1l-.8-3.7-.1-.2-2-1.5v.3l.1 3.5c0 .2.1.5.3.7l2.3 2Zm35.1-6.2-1.3 1v.3l.1 2.7.2 1.7.7-.6c.5-.4.7-1 .6-1.6l-.2-2.3-.1-1.2Z" fill="#2F354D"/><path d="m526 202.4 3.6-1c1.2-.3 2.3-.7 3-1.8.6-.6.5-1 0-1.7a4.3 4.3 0 0 0-1.8-1.4c-.2 0-.4-.3-.4-.3 0-.2.3-.5.4-.5.4 0 .9 0 1.2.2.7.4 1.4.8 1.8 1.5.5 1.2.1 2.4-1 3.1-.7.5-1.4.8-2.1 1l-4 1h-.7ZM510.6 201.7l-3.6-.8c-1.2-.3-2.4-.7-3.2-1.7-.5-.6-.5-1.1 0-1.7.5-.7 1-1.2 1.8-1.5.2 0 .4-.3.4-.4-.1-.2-.3-.4-.5-.4-.4 0-.8 0-1.2.2-.7.4-1.3.8-1.6 1.6-.5 1.1-.1 2.4 1 3a9 9 0 0 0 2.2 1c1.4.4 2.7.6 4 .8h.7ZM108.2 217.3c-4.8.2-11.5-.2-19-2.6a36.8 36.8 0 0 1-16.1-9.1c-2.5-2.7-3.6-5.8-5-8.8a159 159 0 0 0-4.2-7.8c-.5-1-1.4-1.8-2.2-2.8 5.7.4 11.2 1.5 16.5 3.3 3.6 1.2 7.3 2.3 10.6 4 2 1 4.7 2.7 7.6 5.3 2.7 2.6 4.3 5.1 7.2 10 1.3 2.1 3 5 4.6 8.5Zm-44-30.5c.5 1.2 1.2 2.4 1.9 3.7 1.5 3 2.8 6.1 4.4 9.1 1.1 2.1 2.3 4.2 4 6 4 4.7 10 7 16 9 5.4 1.8 11 1.8 16.3 2.2-1.7-2.9-3.5-5.7-5-8.7a33 33 0 0 0-15.3-14.6 76 76 0 0 0-17.1-5.8l-5.3-.9ZM128.4 230c.2.4.4.9.4 3.8.1 3 .1 4.4-.2 5.1-.5 1.3-1.7 2.2-5.3 3.4-4.8 1.6-8.9 2-10.4 2 0 0-6.6 1-14.8-1-2-.4-4-1.1-5.9-2.1a7.7 7.7 0 0 1-3-3v-.4c-.2-2-.5-4-.6-6.1 0-1.3.6-2.3 1.5-3 1.6-1.4 3.5-2.2 5.4-2.8 4.7-1.5 9.6-2 14.5-1.9 4.3.1 8.5.6 12.6 2 .4 0 1.4.3 2.5 1 1 .6 2.5 1.4 3.3 3Zm-37 3.5 1.1.7c1.7 1 3.6 1.6 5.5 2a50.3 50.3 0 0 0 18.6.5c2.9-.4 5.7-1.1 8.3-2.5.8-.4 1.5-1 2-1.5 1-.9 1-2 .1-3l-1.2-1c-1.6-1-3.3-1.6-5-2a49 49 0 0 0-23-.3c-2 .5-4 1.1-5.7 2.2a8 8 0 0 0-1.7 1.4c-.7.9-.7 1.7 0 2.6l1 .9Zm34.2 1.7a42.4 42.4 0 0 1-19.2 3.3v3.7l-.3.6-.3-.6c0-1.2-.2-2.3-.3-3.5l-.2-.3-1.6-.2v4.9h.5c3.4.3 6.7.3 10.1 0 3.4-.3 6.7-1 10-2.3l2-1-.7-4.6Zm-32.8.5v3.1l.3 1.5c.1.2.6.3.9.5h.2c2.7 1.2 5.5 1.8 8.4 2.2h1l-.6-4.4c0-.4-.3-.4-.5-.5-2-.3-4-.6-5.9-1.1-1.2-.3-2.5-.8-3.8-1.3Zm-.3 4.3h.1v-1l-.7-3.7-.1-.2-2-1.4v.2l.1 3.5c0 .3.1.6.3.7l2.3 2Zm35-6.2-1.2 1v3l.3 1.8.7-.6c.5-.5.7-1 .6-1.7l-.2-2.3-.1-1.2Z" fill="#2F354D"/><path d="M116.9 234.8c1.2-.3 2.4-.5 3.6-1 1.2-.3 2.3-.7 3-1.7.5-.7.5-1.1 0-1.7a4.3 4.3 0 0 0-1.9-1.4l-.3-.4c0-.2.3-.5.4-.5.4 0 .9 0 1.2.3.7.3 1.4.7 1.8 1.5.5 1 .1 2.4-1 3-.7.5-1.4.8-2.2 1-1.3.5-2.6.7-4 1h-.6ZM101.5 234.2l-3.7-.9c-1.1-.3-2.3-.7-3-1.7-.6-.6-.6-1-.1-1.7s1-1.2 1.8-1.5c.2 0 .4-.3.4-.3-.1-.2-.3-.5-.5-.5-.4 0-.8 0-1.2.3-.7.3-1.4.8-1.7 1.5-.4 1.2 0 2.4 1.1 3.1a9 9 0 0 0 2.2 1l4 .8h.7v-.1ZM332.6 122c1.5-1 2.2.2 2.7 1 2.2 3 3.7 6.3 4.1 10 .6 4.7.3 9.3-1.6 13.8 2.1-9 0-17.3-5.2-24.9Z" fill="#2F354D"/><path fill-rule="evenodd" clip-rule="evenodd" d="m315.8 120.5-.4-1.2-.8 1-14.7 17.6-.5.6.7.5 10.6 8.8.3.2.4-.1 12.4-4.8.7-.2-.3-.8-8.4-21.6Zm-3.6 14.6-9.7 2 11.5-13.7-1.8 11.7Zm1.5.3 1.8-11.7 6.5 16.9-8.3-5.2Zm-.2 1.6 8.3 5.2-9.7 3.8 1.4-9Zm-1.5-.3-1.4 9-8.4-6.9 9.8-2Zm11.5 7.7-12.7 4.8-10.2-8.8-1.2 1 5 9.2 12.9 2.5 7-7.4-.8-1.3Zm-21.1-.4 7.5 6.4-.1 1.3-4-.9c-1-2.3-2.2-4.5-3.4-6.8Zm9 6.7v1.3l3.7.7 5.5-5.7-9.2 3.7ZM213 111l.1-.2.5-.2h.3l.4-.1c.3-.2.4 0 .4 0v.2c-.2.3-.7.5-1.3.6h-.1a1 1 0 0 1-.4-.1v-.2Zm18.7-.9-6.6 3-.6.2h-.3c-.4-.2-.4-.5-.3-.8.2-.4.6-.7 1.2-1l2.3-1 1.3-.6 2.4-1.1h-.2l-5.4 2.2c-.9.4-1.1.4-1.6.2-.5-.3-1.2-.3-2-.2-1.2 0-2.3 0-3.2-.3l-.5-.2-1.2-.5h-.2c-.4-.2-.8-.3-1.4-.3-1.3 0-2.7.3-4.2 1l-1 .4-1 .4a1 1 0 0 0-.4.4c0 .8 0 1.5.6 2 .5.6 2.3.4 3.4-.4l.5-.4.3-.2c1.4-1 2.7-1.5 4.2-1.2 1.1.1 2.2.3 3.6.1 1.2 0 1.4 0 1.4.8 0 .3 0 .7.2 1 .3.5 1.4.4 2.4-.1a96 96 0 0 1 .8-.5 146.3 146.3 0 0 1 5.5-2.9Zm4.9-2.2ZM226 121.7h-1c-.2 0-.3 0-.2-.1v-.2l.7-.7c-1.7 1.4-1.8 1.4-4.1 1.8h-.3.8l.9-.1.3.1-.2.3-.6.4.3-.2c1-.6 2.1-1.2 3.4-1.3Zm-5.3-3h.5l-.3.2-.6.5-1.7 2.3c-.8 1-1.6 2.2-3 3.2a10.7 10.7 0 0 1-7.6 1.8c1.7-.4 3-1 3.9-2l.7-.7 3.5-3c1-1 2.1-1.7 3.7-2.1l.9-.2Zm10.8-5.7v-.2c-.9 1.2-2.3 2-4 3l-.7.3-2 1a9.8 9.8 0 0 0-5.1 4.9l-.5.8a4.2 4.2 0 0 1-2 1.7l-.1.1c1.5-.3 2.8-.9 4-1.6h-.6l-.8-.2c-.2 0-.3-.2-.3-.3l.2-.2c.3-.3.6-.3 1-.3l2.2-.2c.3 0 .6-.2.8-.4l1.6-1.4a9 9 0 0 0 1.3-1.8l.4-1.4v-.1a51.3 51.3 0 0 0 3.4-2.3c.6-.5 1-1 1.2-1.4Zm-17.9 9h.4l-1.4 1-2.6 2c-2.5 1.9-6.4 2.3-8 1.5-.3-.1-.6-.3-.8-.6l-.4-.2.2-.1h1.4a7 7 0 0 0 2.5-.6l1.9-.8 2.9-1.3c1-.5 2.2-.8 3.3-1h.6Zm-4.6-4c.8-1.6.3-2.6-.7-3.6H208c-.6 1-1.3 1.7-2.6 2.4l-1.6 1-.6.7c-.2.4-.1.7.2.8.5.2 1.4.1 2-.2l.7-.6v-.5.4l-.7.5a2 2 0 0 1-1.2.3c-.5 0-.7-.2-.6-.5v-.1c.2-.4 1-1 1.6-1.1.8-.3 1.6-.2 1.7.2v.6c-.2.4-.6.8-1.2 1.1-.7.5-1.4.8-2.2 1l-.7.3h-.1l-2.1 1c-.6.3-1 .7-1.2 1.1-.2.4-.2.7 0 1l.1-.2c0-.2 0-.4.2-.6.3-.6 1-1 2.4-1.4l2.1-.5c2.7-.6 4.3-2 4.8-3.1Zm21.5-5.7c.4 0 .5 0 .4.1l-.1.2a5 5 0 0 1-2.8 1.5 20.6 20.6 0 0 0-4 1.3v-.1c.4-.6 1-1.1 1.9-1.5 1.5-.8 3-1.3 4.6-1.5Zm-15.7 8.6h-.2c-2.6.7-3.8 0-3.8-1l.1-.9.1-.5v-.2c0-.4.1-.9-.2-1.2v.2l-.1.6-.3.8-.3 1.5c-.2 1.3 1.5 1.8 3.7 1.1l.7-.2.3-.2Zm5.4-6.6c.7-.1 1.4.2 1.2.6-.1-.2-.2-.4-.7-.2-.3 0-.6.3-.7.5v.3c0 .2.4.2.9 0-.3.4-.8.6-1.3.6-.5.1-.6 0-.6-.3a2.6 2.6 0 0 1 .2-1c.1-.2.5-.4 1-.5Z" fill="#2F354D"/></svg>
