<svg width="66" height="79" fill="none" xmlns="http://www.w3.org/2000/svg"><path d="M17.7 3.3C15.2 4.2 4.2 8 1.5 17.2c-.9 3.2-.4 6 .5 11.6A54.6 54.6 0 0 0 9.3 48c2.1 3.5 19.1 31.2 36 28.5 4.3-.7 7.8-3.3 9.2-4.3 5-3.6 7.4-8 8.5-10.3 0-2.5 0-6.3-.7-10.9a68.6 68.6 0 0 0-17.8-35C38.2 8.7 33.1 2.8 25.2 2.3c-3.1-.2-5.7.5-7.5 1.1Z" fill="#FFAD4D"/><path d="M41.1 78.5c-1.4-.2-3.4-.6-6-1.8-7.7-3.6-14.5-10.3-14.5-10.3A74 74 0 0 1 2.3 36.2C.7 30.8-.3 25.2.5 19.4c.4-2.8 1.2-5.6 3-7.8 1-1.3 2.7-2.2 4.1-3.1 2.4-1.5 5-2.7 7-4.8C17.3 1.1 20.8.4 24.4 1 30 1.7 34.6 4.3 39 7.7a71.3 71.3 0 0 1 25.3 40 29.3 29.3 0 0 1 0 15.6c-1.1 3.3-3 5.7-6.2 7.5-3.2 1.9-6.2 4.2-9.3 6.3l-2.1 1.4c-1.3.2-3.2.3-5.5 0Zm-38.3-52A68.7 68.7 0 0 0 28.4 70a28 28 0 0 0 12.8 6c4.8.7 8.8-1.5 10.3-6.1.7-2 1.1-4.3 1.2-6.5.2-7.2-2-14-4.9-20.5a69.2 69.2 0 0 0-18.1-24.6 53.3 53.3 0 0 0-8.7-5.8c-2-1.2-4.3-1.8-6.6-2.3a9.4 9.4 0 0 0-6.6 1 10 10 0 0 0-4 5.3c-1.7 4-1.3 7.9-1 10.2Zm49.3 20.1 1.4-.8c1.9-1 3.7-2.1 5.6-3 .9-.5 1-1 .7-1.9-3.6-9.6-9-18.2-16-25.6-4-4.1-8.5-7.8-13.9-10.2-3.2-1.4-6.5-2.5-10-1.4-2.4.7-4.6 2.3-6.9 3.5a43.4 43.4 0 0 1 9.1 2.9l9.3-3 .2.3-6 4.6c1.5 1 2.9 1.9 4 3 1.8 1.6 2.5 1.4 2.7 1.4 1.8.1 2.6-1.5 5.2-2a7 7 0 0 1 2.2 0l-6 4c8.2 8 14.3 17.4 18.4 28.2Zm10.2 8.2.2.4-1 1L56 60c-.6.4-.7.8-.7 1.5 0 2.8-.2 5.6-1 8.4v.7c3.6-2 6.5-4.4 7.6-8.4 1.1-3.7 1-7.5.5-11.2-.3-2.1-.8-4.2-1.3-6.4L53.3 49l-.3.6 2.1 8.7c2.3-1.2 4.5-3 7.2-3.5Z" fill="#2F354D"/><path d="M47.2 65c.3 1.9-.3 3.3-1.7 4.4-3 2.3-6.5 2.4-10 1.3-2.5-.8-4.6-2.3-6.5-4-.5-.6-1-1.2-.3-2 .6-.6 1.3-.1 1.8.4 2.3 2 4.8 3.7 7.9 4.3 3.3.7 6.2-.4 8.1-3.2l.7-1.1ZM26 22.9 18.6 19a12.8 12.8 0 0 0-7-1.6c-.8 0-1.6.6-2.3.9l-1 .7c-.4.2-.9.1-1.3.2 0-.5 0-1.1.2-1.5a6 6 0 0 1 6.4-2.4c4.9 1 8.8 3.9 12.2 7.5ZM17.9 47.8s-.2 0-.3-.2l-.3-.6-.4-.7c-.2-.4-.1-.6 0-.6h.2c.4.1.9.7 1.1 1.4v.6h-.3ZM10 21.6 17.4 32s.4.4.5.8v.3c-.1.5-.5.7-.9.6a3 3 0 0 1-1.5-1.2l-1.9-2.7-3-4.1.1.2c1.4 2 2.8 4 4.1 6.2.7 1 .8 1.2.6 1.9a5 5 0 0 0 .3 2.5c.4 1.5.6 3 .4 4l-.4 2.4c-.1.6-.2 1.3 0 2 .3 1.7 1 3.4 2.2 5l1.6 2.3.5.4c1 0 1.9-.4 2.4-1.3.6-.7 0-3-1.4-4.1l-1-.9c-1.4-1.4-2.4-3-2.5-5 0-1.3-.1-2.7-.7-4.4-.4-1.4-.2-1.8.6-1.9.5 0 1-.2 1.3-.5.5-.5.1-1.9-.8-3l-.8-1c-1-1-4.8-6-7.1-9Zm-1.8-2.4ZM25.3 35.6l.7 1.7a11 11 0 0 0 3.4 4.1l5.8 4.3a10 10 0 0 1 3.4 4.3c0-2.7-1.6-6.5-4.1-9-1.7-1.5-3.2-2.2-4.8-2.9l-3.2-1.6c-.3-.1-.7-.5-1.2-1ZM15.8 24.2h-.3a16 16 0 0 1 4.6 4.2l2.5 3.1c1.8 2.5 3.7 4 5.6 4.6l2.8 1c.8.3 1.7.8 2.5 1.9l.3.3c-.8-1.8-1.8-3.3-3-4.6v1.7c0 .4 0 .5-.3.5l-.3-.2c-.4-.4-.5-.8-.6-1.3l-.8-2.6c0-.3-.4-.7-.6-.9L26 30.3c-1-.5-1.8-.9-2.6-1.1-.6-.2-1.2-.3-1.8-.2h-.1l-.8-.6-3-3c-.7-.7-1.4-1-1.9-1.2ZM31.2 43.8l.3 1.2c.4 1.3 1.2 2.6 2 3.9l3.8 5.4c.7 1 1.2 2 1.4 3L39 59l.2.2.7-1.6c.6-2.2-1-7-3.8-9.7l-4.9-4.1ZM27.5 51c-2-.6-3.3.2-4.1 1.7l-.1.3.2.1c1.2.5 2.3 1.2 3.5 2.6l1.6 1.7c.4.4.8.6 1.1.7.5.1.9 0 1-.5.1-.6-.3-1.8-.8-2.5a2 2 0 0 0-1-.6l-.5.1h.4c.3 0 .5.2.8.5.4.5.6 1 .7 1.5.1.6-.1.9-.5.9h-.2c-.5-.2-1.3-1-1.7-1.7-.5-1-.6-2-.1-2.2.2-.1.5-.2.8 0 .4 0 1 .5 1.6 1 1 1 1.6 2.2 2.3 3.4l1.8 2.5c.5.6 1.2 1 1.7 1.2.5.1 1 0 1.1-.4H37a2 2 0 0 1-.8 0c-1-.2-1.7-1-2.5-2.7L32.6 56c-1.4-3.2-3.6-4.8-5-5.2ZM15.2 25c-.2 0-.2.1 0 .6a19 19 0 0 0 3 5.4c.7 1 1.4 1.7 2.3 2h.2c0-.2-.2-.4-.3-.5a27 27 0 0 1-2.3-4.3 6.5 6.5 0 0 0-3-3.2ZM29.8 43v.2c1.6 3 1 4.8-.4 5l-1.7.1c-.6.1-1.3 0-1.7.6h1l3 .2c1.7 0 1.9-2.3.5-5l-.7-1.1ZM20.7 36.3c-.7-.2-.8.8-.5 1.7.2.5.5 1 .9 1 .5.2 1 .2 1.3.1.3 0 .5-.3.2-1a3 3 0 0 0-1-1.3c.3.6.4 1 .1 1.1h-.3c-.3 0-.7-.3-.9-.6-.3-.7 0-.8.2-1Z" fill="#2F354D"/><path d="m27.9 28.8.3 1.2-.1.4h-.2l-1-.7c2.1 1.8 2.1 2 3.2 5v-.6l-.5-1.4v-.4c.1 0 .3 0 .4.2l.7.6c-1.1-1.3-2.3-2.5-2.8-4.3Z" fill="#2F354D"/></svg>
